<svg width="1920" height="1080" viewBox="0 0 1920 1080" fill="none" xmlns="http://www.w3.org/2000/svg">
<rect width="1920" height="1080" fill="white"/>
<rect width="141" height="54" transform="translate(1499 967)" fill="#326789"/>
<path d="M1535.59 991.281H1538.87V993.82H1535.59V1005.29H1532.47V983.029H1535.59V991.281ZM1518.94 985.08H1529.37V987.595H1522.04V997.336C1523.74 997.32 1525.28 997.259 1526.66 997.153C1528.05 997.047 1529.46 996.872 1530.88 996.628L1531.22 999.24C1529.69 999.501 1528.18 999.676 1526.68 999.765C1525.19 999.855 1523.46 999.899 1521.47 999.899H1520.82H1518.94V985.08ZM1552.8 983.444C1554.44 983.444 1555.86 983.619 1557.08 983.969C1558.3 984.311 1559.24 984.812 1559.9 985.471C1560.56 986.122 1560.88 986.895 1560.88 987.79C1560.88 988.677 1560.56 989.446 1559.9 990.097C1559.24 990.74 1558.3 991.232 1557.09 991.574C1555.88 991.916 1554.45 992.087 1552.8 992.087C1551.17 992.087 1549.74 991.916 1548.52 991.574C1547.3 991.232 1546.35 990.74 1545.69 990.097C1545.03 989.446 1544.7 988.677 1544.7 987.79C1544.7 986.895 1545.03 986.122 1545.69 985.471C1546.35 984.812 1547.3 984.311 1548.52 983.969C1549.74 983.619 1551.17 983.444 1552.8 983.444ZM1542.67 993.381H1562.94V995.871H1542.67V993.381ZM1545.02 997.434H1560.52V1005H1545.02V997.434ZM1547.95 987.79C1547.94 988.409 1548.35 988.876 1549.19 989.194C1550.03 989.511 1551.23 989.67 1552.8 989.67C1554.36 989.67 1555.55 989.511 1556.39 989.194C1557.24 988.876 1557.66 988.409 1557.66 987.79C1557.66 987.155 1557.24 986.675 1556.39 986.35C1555.55 986.024 1554.36 985.861 1552.8 985.861C1551.23 985.861 1550.03 986.024 1549.19 986.35C1548.35 986.675 1547.94 987.155 1547.95 987.79ZM1557.47 1002.51V999.899H1548.09V1002.51H1557.47ZM1583.17 988.62C1583.16 990.606 1583.47 992.417 1584.11 994.052C1584.74 995.688 1585.77 996.962 1587.2 997.873L1585.51 1000.29C1583.73 999.216 1582.45 997.43 1581.67 994.931C1581.25 996.241 1580.7 997.397 1580.02 998.398C1579.34 999.399 1578.51 1000.19 1577.53 1000.78L1575.62 998.483C1577.18 997.523 1578.32 996.176 1579.04 994.443C1579.78 992.709 1580.14 990.817 1580.14 988.767V984.934H1583.17V988.62ZM1584.85 990.524H1587.73V983.347H1590.64V1004.22H1587.73V993.063H1584.85V990.524ZM1592.32 983.029H1595.3V1005.25H1592.32V983.029ZM1618.76 996.97H1603.04V984.665H1618.59V987.18H1606.21V989.523H1618.08V991.965H1606.21V994.504H1618.76V996.97ZM1600.65 1000.12H1620.98V1002.66H1600.65V1000.12Z" fill="white"/>
<rect width="141" height="54" transform="translate(1693 967)" fill="#326789"/>
<path d="M1729.84 985.08V987.741C1729.84 990.793 1729.84 993.82 1729.03 998.41L1725.88 998.142C1726.71 993.869 1726.71 990.695 1726.74 987.741V987.57H1714.17V985.08H1729.84ZM1732.33 999.777V1002.34H1712.07V999.777H1732.33ZM1748 984.86V995.529H1737.33V984.86H1748ZM1740.41 987.351V993.088H1744.92V987.351H1740.41ZM1754.3 983.029V989.426H1757.3V991.989H1754.3V999.24H1751.17V983.029H1754.3ZM1755.1 1002.37V1004.86H1739.89V997.653H1743V1002.37H1755.1ZM1787.96 990.939V993.381H1772.6V984.201H1787.74V986.691H1775.8V990.939H1787.96ZM1790.35 995.627V998.093H1781.66V1005.22H1778.58V998.093H1770.02V995.627H1790.35ZM1813.32 983.029V1005.25H1810.17V983.029H1813.32ZM1806.66 985.349C1806.66 992.087 1804.29 997.678 1796.36 1001.44L1794.72 998.947C1800.46 996.237 1802.98 992.722 1803.48 987.79H1795.92V985.349H1806.66Z" fill="white"/>
<rect x="977" y="200" width="890" height="709" rx="20" fill="#E9EEF4"/>
<path d="M1117.16 692.539H1769.88" stroke="#B0B0B0"/>
<path d="M1117.16 627.179H1769.88" stroke="#B0B0B0"/>
<path d="M1117.16 561.82H1769.88" stroke="#B0B0B0"/>
<path d="M1117.16 496.46H1769.88" stroke="#B0B0B0"/>
<path d="M1117.16 431.1H1769.88" stroke="#B0B0B0"/>
<path d="M1142.43 431.1V717.811" stroke="#B0B0B0"/>
<path d="M1247.01 431.1V717.811" stroke="#B0B0B0"/>
<path d="M1351.58 431.1V717.811" stroke="#B0B0B0"/>
<path d="M1456.16 431.1V717.811" stroke="#B0B0B0"/>
<path d="M1560.73 431.1V717.811" stroke="#B0B0B0"/>
<path d="M1665.31 431.1V717.811" stroke="#B0B0B0"/>
<path d="M1769.88 431.1V717.811" stroke="#B0B0B0"/>
<path d="M1068.65 427.422V436H1067.56V428.775L1065.38 429.572V428.594L1068.48 427.422H1068.65ZM1077.19 431.055V432.355C1077.19 433.055 1077.13 433.645 1077 434.125C1076.88 434.605 1076.7 434.992 1076.46 435.285C1076.23 435.578 1075.95 435.791 1075.61 435.924C1075.29 436.053 1074.91 436.117 1074.5 436.117C1074.17 436.117 1073.87 436.076 1073.59 435.994C1073.31 435.912 1073.06 435.781 1072.84 435.602C1072.62 435.418 1072.44 435.18 1072.28 434.887C1072.12 434.594 1072 434.238 1071.92 433.82C1071.84 433.402 1071.8 432.914 1071.8 432.355V431.055C1071.8 430.355 1071.86 429.77 1071.99 429.297C1072.12 428.824 1072.3 428.445 1072.53 428.16C1072.77 427.871 1073.05 427.664 1073.38 427.539C1073.71 427.414 1074.08 427.352 1074.49 427.352C1074.82 427.352 1075.12 427.393 1075.4 427.475C1075.68 427.553 1075.93 427.68 1076.15 427.855C1076.37 428.027 1076.56 428.258 1076.71 428.547C1076.87 428.832 1076.98 429.182 1077.07 429.596C1077.15 430.01 1077.19 430.496 1077.19 431.055ZM1076.1 432.531V430.873C1076.1 430.49 1076.08 430.154 1076.03 429.865C1075.99 429.572 1075.92 429.322 1075.84 429.115C1075.75 428.908 1075.64 428.74 1075.51 428.611C1075.38 428.482 1075.23 428.389 1075.06 428.33C1074.89 428.268 1074.7 428.236 1074.49 428.236C1074.23 428.236 1074 428.285 1073.8 428.383C1073.6 428.477 1073.44 428.627 1073.3 428.834C1073.17 429.041 1073.06 429.312 1072.99 429.648C1072.92 429.984 1072.89 430.393 1072.89 430.873V432.531C1072.89 432.914 1072.91 433.252 1072.95 433.545C1073 433.838 1073.07 434.092 1073.16 434.307C1073.25 434.518 1073.36 434.691 1073.49 434.828C1073.62 434.965 1073.76 435.066 1073.93 435.133C1074.1 435.195 1074.29 435.227 1074.5 435.227C1074.77 435.227 1075 435.176 1075.2 435.074C1075.4 434.973 1075.56 434.814 1075.7 434.6C1075.83 434.381 1075.93 434.102 1076 433.762C1076.07 433.418 1076.1 433.008 1076.1 432.531ZM1083.94 431.055V432.355C1083.94 433.055 1083.88 433.645 1083.75 434.125C1083.63 434.605 1083.45 434.992 1083.21 435.285C1082.98 435.578 1082.7 435.791 1082.36 435.924C1082.04 436.053 1081.66 436.117 1081.25 436.117C1080.92 436.117 1080.62 436.076 1080.34 435.994C1080.06 435.912 1079.81 435.781 1079.59 435.602C1079.37 435.418 1079.19 435.18 1079.03 434.887C1078.87 434.594 1078.75 434.238 1078.67 433.82C1078.59 433.402 1078.55 432.914 1078.55 432.355V431.055C1078.55 430.355 1078.61 429.77 1078.74 429.297C1078.87 428.824 1079.05 428.445 1079.28 428.16C1079.52 427.871 1079.8 427.664 1080.12 427.539C1080.46 427.414 1080.83 427.352 1081.24 427.352C1081.57 427.352 1081.88 427.393 1082.15 427.475C1082.43 427.553 1082.68 427.68 1082.9 427.855C1083.12 428.027 1083.31 428.258 1083.46 428.547C1083.62 428.832 1083.73 429.182 1083.82 429.596C1083.9 430.01 1083.94 430.496 1083.94 431.055ZM1082.85 432.531V430.873C1082.85 430.49 1082.83 430.154 1082.78 429.865C1082.74 429.572 1082.67 429.322 1082.59 429.115C1082.5 428.908 1082.39 428.74 1082.26 428.611C1082.13 428.482 1081.98 428.389 1081.81 428.33C1081.64 428.268 1081.45 428.236 1081.24 428.236C1080.98 428.236 1080.75 428.285 1080.55 428.383C1080.35 428.477 1080.19 428.627 1080.05 428.834C1079.92 429.041 1079.81 429.312 1079.74 429.648C1079.67 429.984 1079.64 430.393 1079.64 430.873V432.531C1079.64 432.914 1079.66 433.252 1079.7 433.545C1079.75 433.838 1079.82 434.092 1079.91 434.307C1080 434.518 1080.11 434.691 1080.24 434.828C1080.37 434.965 1080.51 435.066 1080.68 435.133C1080.85 435.195 1081.04 435.227 1081.25 435.227C1081.52 435.227 1081.75 435.176 1081.95 435.074C1082.15 434.973 1082.31 434.814 1082.45 434.6C1082.58 434.381 1082.68 434.102 1082.75 433.762C1082.82 433.418 1082.85 433.008 1082.85 432.531Z" fill="#474747"/>
<path d="M1073.34 499.691C1073.34 500.211 1073.22 500.652 1072.97 501.016C1072.74 501.375 1072.41 501.648 1072 501.836C1071.6 502.023 1071.14 502.117 1070.62 502.117C1070.11 502.117 1069.65 502.023 1069.24 501.836C1068.83 501.648 1068.51 501.375 1068.27 501.016C1068.03 500.652 1067.91 500.211 1067.91 499.691C1067.91 499.352 1067.98 499.041 1068.11 498.76C1068.24 498.475 1068.42 498.227 1068.66 498.016C1068.9 497.805 1069.19 497.643 1069.52 497.529C1069.85 497.412 1070.21 497.354 1070.61 497.354C1071.14 497.354 1071.6 497.455 1072.01 497.658C1072.42 497.857 1072.75 498.133 1072.98 498.484C1073.22 498.836 1073.34 499.238 1073.34 499.691ZM1072.25 499.668C1072.25 499.352 1072.18 499.072 1072.04 498.83C1071.91 498.584 1071.71 498.393 1071.47 498.256C1071.22 498.119 1070.94 498.051 1070.61 498.051C1070.28 498.051 1069.99 498.119 1069.75 498.256C1069.51 498.393 1069.33 498.584 1069.2 498.83C1069.06 499.072 1069 499.352 1069 499.668C1069 499.996 1069.06 500.277 1069.19 500.512C1069.32 500.742 1069.51 500.92 1069.75 501.045C1070 501.166 1070.29 501.227 1070.62 501.227C1070.96 501.227 1071.25 501.166 1071.49 501.045C1071.73 500.92 1071.92 500.742 1072.05 500.512C1072.18 500.277 1072.25 499.996 1072.25 499.668ZM1073.14 495.689C1073.14 496.104 1073.03 496.477 1072.81 496.809C1072.59 497.141 1072.29 497.402 1071.91 497.594C1071.54 497.785 1071.11 497.881 1070.62 497.881C1070.14 497.881 1069.7 497.785 1069.32 497.594C1068.94 497.402 1068.64 497.141 1068.43 496.809C1068.21 496.477 1068.11 496.104 1068.11 495.689C1068.11 495.193 1068.21 494.771 1068.43 494.424C1068.65 494.076 1068.95 493.811 1069.32 493.627C1069.7 493.443 1070.13 493.352 1070.62 493.352C1071.11 493.352 1071.54 493.443 1071.92 493.627C1072.3 493.811 1072.6 494.076 1072.81 494.424C1073.03 494.771 1073.14 495.193 1073.14 495.689ZM1072.05 495.707C1072.05 495.422 1071.99 495.17 1071.87 494.951C1071.75 494.732 1071.58 494.561 1071.37 494.436C1071.15 494.307 1070.9 494.242 1070.62 494.242C1070.33 494.242 1070.08 494.303 1069.87 494.424C1069.66 494.541 1069.49 494.709 1069.37 494.928C1069.25 495.146 1069.2 495.406 1069.2 495.707C1069.2 496 1069.25 496.256 1069.37 496.475C1069.49 496.693 1069.66 496.863 1069.88 496.984C1070.09 497.105 1070.34 497.166 1070.62 497.166C1070.91 497.166 1071.16 497.105 1071.37 496.984C1071.58 496.863 1071.75 496.693 1071.87 496.475C1071.99 496.256 1072.05 496 1072.05 495.707ZM1080.06 497.055V498.355C1080.06 499.055 1080 499.645 1079.88 500.125C1079.75 500.605 1079.57 500.992 1079.34 501.285C1079.1 501.578 1078.82 501.791 1078.49 501.924C1078.16 502.053 1077.79 502.117 1077.38 502.117C1077.05 502.117 1076.74 502.076 1076.47 501.994C1076.19 501.912 1075.94 501.781 1075.72 501.602C1075.5 501.418 1075.31 501.18 1075.15 500.887C1075 500.594 1074.88 500.238 1074.8 499.82C1074.71 499.402 1074.67 498.914 1074.67 498.355V497.055C1074.67 496.355 1074.74 495.77 1074.86 495.297C1074.99 494.824 1075.17 494.445 1075.41 494.16C1075.64 493.871 1075.92 493.664 1076.25 493.539C1076.58 493.414 1076.95 493.352 1077.36 493.352C1077.7 493.352 1078 493.393 1078.28 493.475C1078.56 493.553 1078.81 493.68 1079.03 493.855C1079.25 494.027 1079.43 494.258 1079.58 494.547C1079.74 494.832 1079.86 495.182 1079.94 495.596C1080.02 496.01 1080.06 496.496 1080.06 497.055ZM1078.97 498.531V496.873C1078.97 496.49 1078.95 496.154 1078.9 495.865C1078.86 495.572 1078.8 495.322 1078.71 495.115C1078.62 494.908 1078.52 494.74 1078.38 494.611C1078.25 494.482 1078.1 494.389 1077.93 494.33C1077.76 494.268 1077.57 494.236 1077.36 494.236C1077.11 494.236 1076.88 494.285 1076.68 494.383C1076.48 494.477 1076.31 494.627 1076.17 494.834C1076.04 495.041 1075.94 495.312 1075.87 495.648C1075.8 495.984 1075.76 496.393 1075.76 496.873V498.531C1075.76 498.914 1075.79 499.252 1075.83 499.545C1075.88 499.838 1075.94 500.092 1076.03 500.307C1076.12 500.518 1076.23 500.691 1076.36 500.828C1076.49 500.965 1076.64 501.066 1076.81 501.133C1076.98 501.195 1077.17 501.227 1077.38 501.227C1077.64 501.227 1077.87 501.176 1078.07 501.074C1078.27 500.973 1078.44 500.814 1078.57 500.6C1078.71 500.381 1078.81 500.102 1078.88 499.762C1078.94 499.418 1078.97 499.008 1078.97 498.531Z" fill="#474747"/>
<path d="M1072.12 557.457H1072.21V558.377H1072.12C1071.54 558.377 1071.06 558.471 1070.68 558.658C1070.29 558.842 1069.98 559.09 1069.76 559.402C1069.53 559.711 1069.37 560.059 1069.27 560.445C1069.17 560.832 1069.12 561.225 1069.12 561.623V562.877C1069.12 563.256 1069.16 563.592 1069.25 563.885C1069.34 564.174 1069.47 564.418 1069.62 564.617C1069.78 564.816 1069.96 564.967 1070.15 565.068C1070.35 565.17 1070.56 565.221 1070.77 565.221C1071.02 565.221 1071.24 565.174 1071.44 565.08C1071.63 564.982 1071.8 564.848 1071.93 564.676C1072.07 564.5 1072.17 564.293 1072.24 564.055C1072.31 563.816 1072.35 563.555 1072.35 563.27C1072.35 563.016 1072.32 562.771 1072.25 562.537C1072.19 562.299 1072.1 562.088 1071.97 561.904C1071.84 561.717 1071.68 561.57 1071.48 561.465C1071.29 561.355 1071.06 561.301 1070.79 561.301C1070.49 561.301 1070.21 561.375 1069.95 561.523C1069.69 561.668 1069.48 561.859 1069.31 562.098C1069.15 562.332 1069.05 562.588 1069.03 562.865L1068.46 562.859C1068.51 562.422 1068.61 562.049 1068.76 561.74C1068.91 561.428 1069.1 561.174 1069.32 560.979C1069.55 560.779 1069.8 560.635 1070.08 560.545C1070.36 560.451 1070.66 560.404 1070.97 560.404C1071.4 560.404 1071.76 560.484 1072.07 560.645C1072.38 560.805 1072.63 561.02 1072.83 561.289C1073.03 561.555 1073.18 561.855 1073.27 562.191C1073.37 562.523 1073.42 562.865 1073.42 563.217C1073.42 563.619 1073.36 563.996 1073.25 564.348C1073.14 564.699 1072.97 565.008 1072.74 565.273C1072.52 565.539 1072.24 565.746 1071.91 565.895C1071.59 566.043 1071.21 566.117 1070.77 566.117C1070.31 566.117 1069.91 566.023 1069.56 565.836C1069.22 565.645 1068.94 565.391 1068.71 565.074C1068.48 564.758 1068.31 564.406 1068.2 564.02C1068.09 563.633 1068.03 563.24 1068.03 562.842V562.332C1068.03 561.73 1068.09 561.141 1068.21 560.562C1068.33 559.984 1068.54 559.461 1068.84 558.992C1069.14 558.523 1069.55 558.15 1070.09 557.873C1070.62 557.596 1071.29 557.457 1072.12 557.457ZM1080.06 561.055V562.355C1080.06 563.055 1080 563.645 1079.88 564.125C1079.75 564.605 1079.57 564.992 1079.34 565.285C1079.1 565.578 1078.82 565.791 1078.49 565.924C1078.16 566.053 1077.79 566.117 1077.38 566.117C1077.05 566.117 1076.74 566.076 1076.47 565.994C1076.19 565.912 1075.94 565.781 1075.72 565.602C1075.5 565.418 1075.31 565.18 1075.15 564.887C1075 564.594 1074.88 564.238 1074.8 563.82C1074.71 563.402 1074.67 562.914 1074.67 562.355V561.055C1074.67 560.355 1074.74 559.77 1074.86 559.297C1074.99 558.824 1075.17 558.445 1075.41 558.16C1075.64 557.871 1075.92 557.664 1076.25 557.539C1076.58 557.414 1076.95 557.352 1077.36 557.352C1077.7 557.352 1078 557.393 1078.28 557.475C1078.56 557.553 1078.81 557.68 1079.03 557.855C1079.25 558.027 1079.43 558.258 1079.58 558.547C1079.74 558.832 1079.86 559.182 1079.94 559.596C1080.02 560.01 1080.06 560.496 1080.06 561.055ZM1078.97 562.531V560.873C1078.97 560.49 1078.95 560.154 1078.9 559.865C1078.86 559.572 1078.8 559.322 1078.71 559.115C1078.62 558.908 1078.52 558.74 1078.38 558.611C1078.25 558.482 1078.1 558.389 1077.93 558.33C1077.76 558.268 1077.57 558.236 1077.36 558.236C1077.11 558.236 1076.88 558.285 1076.68 558.383C1076.48 558.477 1076.31 558.627 1076.17 558.834C1076.04 559.041 1075.94 559.312 1075.87 559.648C1075.8 559.984 1075.76 560.393 1075.76 560.873V562.531C1075.76 562.914 1075.79 563.252 1075.83 563.545C1075.88 563.838 1075.94 564.092 1076.03 564.307C1076.12 564.518 1076.23 564.691 1076.36 564.828C1076.49 564.965 1076.64 565.066 1076.81 565.133C1076.98 565.195 1077.17 565.227 1077.38 565.227C1077.64 565.227 1077.87 565.176 1078.07 565.074C1078.27 564.973 1078.44 564.814 1078.57 564.6C1078.71 564.381 1078.81 564.102 1078.88 563.762C1078.94 563.418 1078.97 563.008 1078.97 562.531Z" fill="#474747"/>
<path d="M1073.72 630.129V631.02H1067.56V630.381L1071.38 624.469H1072.27L1071.32 626.18L1068.79 630.129H1073.72ZM1072.54 624.469V633H1071.45V624.469H1072.54ZM1080.06 628.055V629.355C1080.06 630.055 1080 630.645 1079.88 631.125C1079.75 631.605 1079.57 631.992 1079.34 632.285C1079.1 632.578 1078.82 632.791 1078.49 632.924C1078.16 633.053 1077.79 633.117 1077.38 633.117C1077.05 633.117 1076.74 633.076 1076.47 632.994C1076.19 632.912 1075.94 632.781 1075.72 632.602C1075.5 632.418 1075.31 632.18 1075.15 631.887C1075 631.594 1074.88 631.238 1074.8 630.82C1074.71 630.402 1074.67 629.914 1074.67 629.355V628.055C1074.67 627.355 1074.74 626.77 1074.86 626.297C1074.99 625.824 1075.17 625.445 1075.41 625.16C1075.64 624.871 1075.92 624.664 1076.25 624.539C1076.58 624.414 1076.95 624.352 1077.36 624.352C1077.7 624.352 1078 624.393 1078.28 624.475C1078.56 624.553 1078.81 624.68 1079.03 624.855C1079.25 625.027 1079.43 625.258 1079.58 625.547C1079.74 625.832 1079.86 626.182 1079.94 626.596C1080.02 627.01 1080.06 627.496 1080.06 628.055ZM1078.97 629.531V627.873C1078.97 627.49 1078.95 627.154 1078.9 626.865C1078.86 626.572 1078.8 626.322 1078.71 626.115C1078.62 625.908 1078.52 625.74 1078.38 625.611C1078.25 625.482 1078.1 625.389 1077.93 625.33C1077.76 625.268 1077.57 625.236 1077.36 625.236C1077.11 625.236 1076.88 625.285 1076.68 625.383C1076.48 625.477 1076.31 625.627 1076.17 625.834C1076.04 626.041 1075.94 626.312 1075.87 626.648C1075.8 626.984 1075.76 627.393 1075.76 627.873V629.531C1075.76 629.914 1075.79 630.252 1075.83 630.545C1075.88 630.838 1075.94 631.092 1076.03 631.307C1076.12 631.518 1076.23 631.691 1076.36 631.828C1076.49 631.965 1076.64 632.066 1076.81 632.133C1076.98 632.195 1077.17 632.227 1077.38 632.227C1077.64 632.227 1077.87 632.176 1078.07 632.074C1078.27 631.973 1078.44 631.814 1078.57 631.6C1078.71 631.381 1078.81 631.102 1078.88 630.762C1078.94 630.418 1078.97 630.008 1078.97 629.531Z" fill="#474747"/>
<path d="M1073.55 697.109V698H1067.96V697.221L1070.76 694.109C1071.1 693.727 1071.37 693.402 1071.56 693.137C1071.75 692.867 1071.88 692.627 1071.96 692.416C1072.03 692.201 1072.07 691.982 1072.07 691.76C1072.07 691.479 1072.01 691.225 1071.9 690.998C1071.78 690.768 1071.62 690.584 1071.39 690.447C1071.17 690.311 1070.9 690.242 1070.58 690.242C1070.21 690.242 1069.89 690.316 1069.63 690.465C1069.38 690.609 1069.2 690.812 1069.07 691.074C1068.95 691.336 1068.88 691.637 1068.88 691.977H1067.8C1067.8 691.496 1067.91 691.057 1068.12 690.658C1068.33 690.26 1068.64 689.943 1069.05 689.709C1069.47 689.471 1069.98 689.352 1070.58 689.352C1071.12 689.352 1071.58 689.447 1071.97 689.639C1072.35 689.826 1072.64 690.092 1072.85 690.436C1073.05 690.775 1073.16 691.174 1073.16 691.631C1073.16 691.881 1073.11 692.135 1073.03 692.393C1072.95 692.646 1072.83 692.9 1072.68 693.154C1072.54 693.408 1072.37 693.658 1072.17 693.904C1071.98 694.15 1071.78 694.393 1071.56 694.631L1069.27 697.109H1073.55ZM1080.06 693.055V694.355C1080.06 695.055 1080 695.645 1079.88 696.125C1079.75 696.605 1079.57 696.992 1079.34 697.285C1079.1 697.578 1078.82 697.791 1078.49 697.924C1078.16 698.053 1077.79 698.117 1077.38 698.117C1077.05 698.117 1076.74 698.076 1076.47 697.994C1076.19 697.912 1075.94 697.781 1075.72 697.602C1075.5 697.418 1075.31 697.18 1075.15 696.887C1075 696.594 1074.88 696.238 1074.8 695.82C1074.71 695.402 1074.67 694.914 1074.67 694.355V693.055C1074.67 692.355 1074.74 691.77 1074.86 691.297C1074.99 690.824 1075.17 690.445 1075.41 690.16C1075.64 689.871 1075.92 689.664 1076.25 689.539C1076.58 689.414 1076.95 689.352 1077.36 689.352C1077.7 689.352 1078 689.393 1078.28 689.475C1078.56 689.553 1078.81 689.68 1079.03 689.855C1079.25 690.027 1079.43 690.258 1079.58 690.547C1079.74 690.832 1079.86 691.182 1079.94 691.596C1080.02 692.01 1080.06 692.496 1080.06 693.055ZM1078.97 694.531V692.873C1078.97 692.49 1078.95 692.154 1078.9 691.865C1078.86 691.572 1078.8 691.322 1078.71 691.115C1078.62 690.908 1078.52 690.74 1078.38 690.611C1078.25 690.482 1078.1 690.389 1077.93 690.33C1077.76 690.268 1077.57 690.236 1077.36 690.236C1077.11 690.236 1076.88 690.285 1076.68 690.383C1076.48 690.477 1076.31 690.627 1076.17 690.834C1076.04 691.041 1075.94 691.312 1075.87 691.648C1075.8 691.984 1075.76 692.393 1075.76 692.873V694.531C1075.76 694.914 1075.79 695.252 1075.83 695.545C1075.88 695.838 1075.94 696.092 1076.03 696.307C1076.12 696.518 1076.23 696.691 1076.36 696.828C1076.49 696.965 1076.64 697.066 1076.81 697.133C1076.98 697.195 1077.17 697.227 1077.38 697.227C1077.64 697.227 1077.87 697.176 1078.07 697.074C1078.27 696.973 1078.44 696.814 1078.57 696.6C1078.71 696.381 1078.81 696.102 1078.88 695.762C1078.94 695.418 1078.97 695.008 1078.97 694.531Z" fill="#474747"/>
<path d="M1144.4 723.422V732H1143.31V724.775L1141.13 725.572V724.594L1144.23 723.422H1144.4Z" fill="#474747"/>
<path d="M1250.42 731.109V732H1244.84V731.221L1247.63 728.109C1247.98 727.727 1248.24 727.402 1248.43 727.137C1248.62 726.867 1248.76 726.627 1248.83 726.416C1248.91 726.201 1248.95 725.982 1248.95 725.76C1248.95 725.479 1248.89 725.225 1248.77 724.998C1248.66 724.768 1248.49 724.584 1248.27 724.447C1248.04 724.311 1247.78 724.242 1247.46 724.242C1247.08 724.242 1246.76 724.316 1246.51 724.465C1246.26 724.609 1246.07 724.812 1245.95 725.074C1245.82 725.336 1245.76 725.637 1245.76 725.977H1244.68C1244.68 725.496 1244.78 725.057 1244.99 724.658C1245.2 724.26 1245.52 723.943 1245.93 723.709C1246.34 723.471 1246.85 723.352 1247.46 723.352C1248 723.352 1248.46 723.447 1248.84 723.639C1249.22 723.826 1249.52 724.092 1249.72 724.436C1249.93 724.775 1250.03 725.174 1250.03 725.631C1250.03 725.881 1249.99 726.135 1249.9 726.393C1249.82 726.646 1249.71 726.9 1249.56 727.154C1249.41 727.408 1249.24 727.658 1249.05 727.904C1248.86 728.15 1248.65 728.393 1248.43 728.631L1246.15 731.109H1250.42Z" fill="#474747"/>
<path d="M1350.42 727.201H1351.19C1351.57 727.201 1351.88 727.139 1352.13 727.014C1352.38 726.885 1352.56 726.711 1352.68 726.492C1352.81 726.27 1352.87 726.02 1352.87 725.742C1352.87 725.414 1352.82 725.139 1352.71 724.916C1352.6 724.693 1352.43 724.525 1352.21 724.412C1352 724.299 1351.72 724.242 1351.38 724.242C1351.08 724.242 1350.81 724.303 1350.57 724.424C1350.34 724.541 1350.16 724.709 1350.03 724.928C1349.9 725.146 1349.84 725.404 1349.84 725.701H1348.75C1348.75 725.268 1348.86 724.873 1349.08 724.518C1349.3 724.162 1349.61 723.879 1350 723.668C1350.4 723.457 1350.86 723.352 1351.38 723.352C1351.9 723.352 1352.35 723.443 1352.74 723.627C1353.12 723.807 1353.42 724.076 1353.64 724.436C1353.85 724.791 1353.96 725.234 1353.96 725.766C1353.96 725.98 1353.91 726.211 1353.81 726.457C1353.71 726.699 1353.56 726.926 1353.35 727.137C1353.14 727.348 1352.87 727.521 1352.54 727.658C1352.21 727.791 1351.81 727.857 1351.34 727.857H1350.42V727.201ZM1350.42 728.092V727.441H1351.34C1351.88 727.441 1352.33 727.506 1352.69 727.635C1353.04 727.764 1353.32 727.936 1353.53 728.15C1353.73 728.365 1353.88 728.602 1353.96 728.859C1354.05 729.113 1354.09 729.367 1354.09 729.621C1354.09 730.02 1354.02 730.373 1353.88 730.682C1353.75 730.99 1353.56 731.252 1353.32 731.467C1353.07 731.682 1352.79 731.844 1352.46 731.953C1352.13 732.062 1351.78 732.117 1351.39 732.117C1351.02 732.117 1350.67 732.064 1350.34 731.959C1350.02 731.854 1349.73 731.701 1349.48 731.502C1349.23 731.299 1349.03 731.051 1348.89 730.758C1348.75 730.461 1348.68 730.123 1348.68 729.744H1349.77C1349.77 730.041 1349.83 730.301 1349.96 730.523C1350.09 730.746 1350.28 730.92 1350.52 731.045C1350.77 731.166 1351.06 731.227 1351.39 731.227C1351.72 731.227 1352.01 731.17 1352.24 731.057C1352.49 730.939 1352.67 730.764 1352.8 730.529C1352.93 730.295 1353 730 1353 729.645C1353 729.289 1352.93 728.998 1352.78 728.771C1352.63 728.541 1352.42 728.371 1352.14 728.262C1351.88 728.148 1351.56 728.092 1351.19 728.092H1350.42Z" fill="#474747"/>
<path d="M1460.6 729.129V730.02H1454.44V729.381L1458.26 723.469H1459.14L1458.19 725.18L1455.67 729.129H1460.6ZM1459.41 723.469V732H1458.33V723.469H1459.41Z" fill="#474747"/>
<path d="M1560.21 727.939L1559.34 727.717L1559.77 723.469H1564.14V724.471H1560.69L1560.43 726.791C1560.58 726.701 1560.78 726.617 1561.02 726.539C1561.26 726.461 1561.54 726.422 1561.85 726.422C1562.25 726.422 1562.6 726.49 1562.91 726.627C1563.22 726.76 1563.49 726.951 1563.71 727.201C1563.93 727.451 1564.1 727.752 1564.22 728.104C1564.34 728.455 1564.39 728.848 1564.39 729.281C1564.39 729.691 1564.34 730.068 1564.22 730.412C1564.12 730.756 1563.95 731.057 1563.73 731.314C1563.5 731.568 1563.22 731.766 1562.88 731.906C1562.55 732.047 1562.15 732.117 1561.69 732.117C1561.35 732.117 1561.02 732.07 1560.71 731.977C1560.41 731.879 1560.14 731.732 1559.89 731.537C1559.66 731.338 1559.46 731.092 1559.31 730.799C1559.16 730.502 1559.07 730.154 1559.03 729.756H1560.06C1560.11 730.076 1560.2 730.346 1560.34 730.564C1560.48 730.783 1560.66 730.949 1560.89 731.062C1561.12 731.172 1561.39 731.227 1561.69 731.227C1561.95 731.227 1562.18 731.182 1562.38 731.092C1562.58 731.002 1562.75 730.873 1562.88 730.705C1563.02 730.537 1563.12 730.334 1563.19 730.096C1563.27 729.857 1563.3 729.59 1563.3 729.293C1563.3 729.023 1563.27 728.773 1563.19 728.543C1563.12 728.312 1563.01 728.111 1562.86 727.939C1562.71 727.768 1562.54 727.635 1562.33 727.541C1562.12 727.443 1561.87 727.395 1561.6 727.395C1561.24 727.395 1560.96 727.443 1560.77 727.541C1560.59 727.639 1560.4 727.771 1560.21 727.939Z" fill="#474747"/>
<path d="M1773.35 723.469V724.078L1769.81 732H1768.67L1772.2 724.359H1767.58V723.469H1773.35Z" fill="#474747"/>
<path d="M1665.07 732.117C1663.59 732.094 1661.98 731.227 1661.98 728.086C1661.98 725.086 1663.21 723.398 1665.2 723.398C1666.69 723.398 1667.73 724.312 1667.95 725.648H1666.91C1666.71 724.898 1666.15 724.336 1665.2 724.336C1663.8 724.336 1662.97 725.531 1662.97 727.57H1663.08C1663.57 726.867 1664.34 726.445 1665.26 726.445C1666.77 726.445 1668.02 727.617 1668.02 729.258C1668.02 730.852 1666.85 732.129 1665.07 732.117ZM1665.07 731.191C1666.17 731.191 1666.99 730.324 1667 729.27C1666.99 728.227 1666.21 727.371 1665.09 727.371C1663.98 727.371 1663.12 728.273 1663.11 729.281C1663.11 730.277 1663.93 731.191 1665.07 731.191Z" fill="#474747"/>
<circle cx="1141.5" cy="672.5" r="5.5" fill="#326789" stroke="#326789" stroke-width="2"/>
<path d="M1252.5 447C1252.5 450.038 1250.04 452.5 1247 452.5C1243.96 452.5 1241.5 450.038 1241.5 447C1241.5 443.962 1243.96 441.5 1247 441.5C1250.04 441.5 1252.5 443.962 1252.5 447Z" fill="#326789" stroke="#326789" stroke-width="2"/>
<path d="M1357 518.5C1357 521.538 1354.54 524 1351.5 524C1348.46 524 1346 521.538 1346 518.5C1346 515.462 1348.46 513 1351.5 513C1354.54 513 1357 515.462 1357 518.5Z" fill="#326789" stroke="#326789" stroke-width="2"/>
<circle cx="1455.5" cy="550.5" r="5.5" fill="#326789" stroke="#326789" stroke-width="2"/>
<circle cx="1560.5" cy="576.5" r="5.5" fill="#326789" stroke="#326789" stroke-width="2"/>
<circle cx="1664.5" cy="606.5" r="5.5" fill="#326789" stroke="#326789" stroke-width="2"/>
<circle cx="1769.5" cy="510.5" r="5.5" fill="#326789" stroke="#326789" stroke-width="2"/>
<path d="M1141 675.5C1163.17 590.5 1215.5 425.9 1247.5 447.5C1287.5 474.5 1248 486.5 1352 518.5C1397.6 532.9 1441 545.833 1457 550.5L1560.5 577C1578.33 582 1624.1 594.8 1664.5 606C1716.5 616 1755.83 547.5 1769 512V507.5" stroke="#326789" stroke-width="5"/>
<path d="M1059.06 239.123V265.637H1055.78V239.123H1059.06ZM1044.79 241.057C1048.77 241.057 1051.67 244.689 1051.7 250.402C1051.67 256.174 1048.77 259.777 1044.79 259.777C1040.78 259.777 1037.88 256.174 1037.88 250.402C1037.88 244.689 1040.78 241.057 1044.79 241.057ZM1044.79 243.986C1042.53 243.986 1041.01 246.359 1041.01 250.402C1041.01 254.475 1042.53 256.848 1044.79 256.848C1047.02 256.848 1048.54 254.475 1048.54 250.402C1048.54 246.359 1047.02 243.986 1044.79 243.986ZM1087.13 239.152V258.488H1083.88V248.791H1079.19V246.154H1083.88V239.152H1087.13ZM1087.8 262.443V265.08H1069.76V256.789H1073.01V262.443H1087.8ZM1074.68 244.426C1074.68 247.619 1076.82 250.9 1080.92 252.248L1079.28 254.855C1076.32 253.845 1074.23 251.838 1073.07 249.318C1071.9 252.116 1069.68 254.328 1066.56 255.412L1064.89 252.775C1069.11 251.398 1071.37 247.912 1071.37 244.396V243.693H1065.86V241.057H1080.16V243.693H1074.68V244.426ZM1110.26 246.066C1110.26 250.344 1111.76 254.797 1115.33 257.053L1113.54 259.543C1111.16 258.107 1109.6 255.632 1108.74 252.717C1107.77 255.925 1106.07 258.635 1103.58 260.158L1101.56 257.727C1105.4 255.383 1107.13 250.725 1107.13 246.213V241.467H1110.26V246.066ZM1124.85 239.123V265.607H1121.72V239.123H1124.85ZM1119.34 239.592V264.318H1116.27V250.93H1112.49V248.234H1116.27V239.592H1119.34ZM1151.46 253.01V255.588H1132.89V241.203H1151.23V243.84H1136.2V247.033H1150.61V249.582H1136.2V253.01H1151.46ZM1154.13 259.719V262.385H1129.93V259.719H1154.13Z" fill="black"/>
<path d="M1189.15 239.123V254.855H1185.9V248.381H1181.39V245.715H1185.9V239.123H1189.15ZM1180.19 255.529C1185.81 255.529 1189.24 257.375 1189.24 260.568C1189.24 263.762 1185.81 265.607 1180.19 265.607C1174.59 265.607 1171.16 263.762 1171.19 260.568C1171.16 257.375 1174.59 255.529 1180.19 255.529ZM1180.19 258.02C1176.5 258.02 1174.42 258.898 1174.42 260.568C1174.42 262.209 1176.5 263.088 1180.19 263.088C1183.88 263.088 1185.99 262.209 1185.99 260.568C1185.99 258.898 1183.88 258.02 1180.19 258.02ZM1176.7 243.664C1176.7 246.887 1178.84 250.139 1182.94 251.516L1181.3 254.094C1178.36 253.098 1176.26 251.076 1175.12 248.586C1173.95 251.413 1171.74 253.669 1168.59 254.797L1166.89 252.219C1171.13 250.754 1173.39 247.18 1173.39 243.693V243.488H1167.88V240.852H1182.18V243.488H1176.7V243.664ZM1215.88 239.152V246.857H1219.45V249.553H1215.88V257.053H1212.63V239.152H1215.88ZM1194.67 253.889C1196.66 253.889 1198.96 253.874 1201.35 253.801V252.189C1198.4 251.823 1196.54 250.402 1196.54 248.322C1196.54 245.891 1199.09 244.367 1202.93 244.396C1206.8 244.367 1209.32 245.891 1209.32 248.322C1209.32 250.388 1207.5 251.794 1204.6 252.16V253.684C1206.86 253.581 1209.13 253.405 1211.25 253.127L1211.51 255.383C1205.86 256.379 1199.68 256.438 1195.02 256.438L1194.67 253.889ZM1215.88 258.195V265.607H1212.63V260.744H1198.01V258.195H1215.88ZM1210.55 241.232V243.635H1195.34V241.232H1201.35V238.918H1204.6V241.232H1210.55ZM1202.93 246.594C1200.88 246.564 1199.65 247.18 1199.68 248.322C1199.65 249.406 1200.88 250.109 1202.93 250.08C1204.98 250.109 1206.21 249.406 1206.21 248.322C1206.21 247.18 1204.98 246.564 1202.93 246.594ZM1244.33 251.164V253.742H1236.48V259.807H1247.03V262.473H1222.83V259.807H1233.26V253.742H1225.76V241.086H1244.13V243.693H1229.01V251.164H1244.33ZM1284.05 252.834V255.441H1273.82V260.012H1270.6V255.441H1259.85V252.834H1284.05ZM1281.38 262.443V265.08H1262.78V257.785H1266V262.443H1281.38ZM1266.23 239.973V242.961H1277.66V239.973H1280.88V250.754H1263.01V239.973H1266.23ZM1266.23 248.176H1277.66V245.393H1266.23V248.176ZM1297.41 243.312C1297.41 246.711 1299.55 249.963 1303.62 251.281L1301.87 253.889C1299 252.878 1296.95 250.871 1295.83 248.322C1294.65 251.105 1292.49 253.288 1289.45 254.387L1287.69 251.779C1291.99 250.344 1294.13 246.887 1294.13 243.107V240.5H1297.41V243.312ZM1309.98 256.145V265.607H1306.73V258.723H1291.94V256.145H1309.98ZM1309.98 239.123V254.855H1306.73V246.945H1301.46V244.279H1306.73V239.123H1309.98Z" fill="#E65C4F"/>
<rect x="53" y="569" width="890" height="340" rx="20" fill="#E9EEF4"/>
<path d="M154.801 802.629H145.865V810.051H143.595V802.629H134.781V800.749H154.801V802.629ZM137.296 789.372H152.286V797.966H137.296V789.372ZM149.967 796.159V791.228H139.566V796.159H149.967ZM181.407 801.018H161.388V799.211H181.407V801.018ZM163.414 807.878H166.856V804.46H163.609V802.629H179.186V804.46H175.963V807.878H179.381V809.709H163.414V807.878ZM163.902 788.762H178.893V794.011H166.246V795.817H179.332V797.6H163.951V792.302H176.573V790.568H163.902V788.762ZM173.692 807.878V804.46H169.151V807.878H173.692ZM206.134 810.124H203.814V788.2H206.134V810.124ZM188.775 797.502C188.775 795.972 189.015 794.629 189.496 793.474C189.976 792.31 190.643 791.415 191.498 790.788C192.36 790.153 193.341 789.836 194.439 789.836C195.522 789.836 196.49 790.153 197.345 790.788C198.199 791.415 198.867 792.31 199.347 793.474C199.835 794.629 200.079 795.972 200.079 797.502C200.079 799.048 199.835 800.403 199.347 801.567C198.867 802.731 198.199 803.626 197.345 804.252C196.49 804.879 195.522 805.192 194.439 805.192C193.341 805.192 192.36 804.879 191.498 804.252C190.643 803.626 189.976 802.731 189.496 801.567C189.015 800.403 188.775 799.048 188.775 797.502ZM191.021 797.502C191.021 798.641 191.164 799.634 191.449 800.48C191.734 801.327 192.132 801.978 192.645 802.434C193.166 802.889 193.764 803.117 194.439 803.117C195.107 803.117 195.697 802.889 196.209 802.434C196.722 801.978 197.121 801.327 197.406 800.48C197.691 799.634 197.833 798.641 197.833 797.502C197.833 796.379 197.691 795.398 197.406 794.56C197.121 793.714 196.722 793.063 196.209 792.607C195.697 792.143 195.107 791.911 194.439 791.911C193.764 791.911 193.166 792.143 192.645 792.607C192.132 793.063 191.734 793.714 191.449 794.56C191.164 795.398 191.021 796.379 191.021 797.502ZM237.911 791.887C237.903 793.343 237.862 794.711 237.789 795.988C237.716 797.266 237.545 798.755 237.276 800.456L234.981 800.285C235.234 798.731 235.401 797.335 235.482 796.098C235.563 794.861 235.608 793.636 235.616 792.424H226.729V790.544H237.911V791.887ZM225.509 803.483C227.503 803.467 229 803.447 230.001 803.422V796.794H232.296V803.349C235.071 803.235 237.366 803.06 239.181 802.824L239.303 804.558C235.974 805.095 231.804 805.363 226.791 805.363H225.777L225.509 803.483ZM240.426 788.2H242.77V797.233H246.114V799.211H242.77V810.075H240.426V788.2ZM270.06 800.139H263.443V805.485H272.354V807.39H252.335V805.485H261.148V800.139H254.825V789.885H269.864V791.765H257.145V798.283H270.06V800.139ZM295.982 797.062H299.498V798.991H295.982V810.075H293.688V788.2H295.982V797.062ZM278.819 791.618H284.215V788.493H286.534V791.618H291.783V793.522H278.819V791.618ZM279.942 800.212C279.942 799.235 280.174 798.361 280.638 797.587C281.11 796.814 281.757 796.212 282.579 795.781C283.409 795.349 284.345 795.134 285.387 795.134C286.42 795.134 287.348 795.349 288.17 795.781C289 796.212 289.651 796.814 290.123 797.587C290.595 798.361 290.831 799.235 290.831 800.212C290.831 801.197 290.595 802.076 290.123 802.849C289.651 803.622 289 804.228 288.17 804.667C287.348 805.099 286.42 805.314 285.387 805.314C284.345 805.314 283.409 805.099 282.579 804.667C281.757 804.228 281.11 803.622 280.638 802.849C280.174 802.076 279.942 801.197 279.942 800.212ZM282.164 800.212C282.164 800.839 282.298 801.392 282.567 801.872C282.844 802.352 283.226 802.722 283.714 802.983C284.211 803.243 284.768 803.369 285.387 803.361C285.997 803.369 286.546 803.243 287.035 802.983C287.523 802.722 287.905 802.352 288.182 801.872C288.467 801.392 288.609 800.839 288.609 800.212C288.609 799.602 288.467 799.056 288.182 798.576C287.905 798.096 287.523 797.722 287.035 797.453C286.546 797.176 285.997 797.038 285.387 797.038C284.768 797.038 284.211 797.176 283.714 797.453C283.226 797.722 282.844 798.096 282.567 798.576C282.298 799.056 282.164 799.602 282.164 800.212ZM324.347 810.075H322.149V788.2H324.347V810.075ZM305.475 803.752C307.753 802.401 309.483 800.818 310.663 799.003C311.843 797.181 312.534 795.118 312.738 792.814H306.5V790.91H315.045C315.029 793.156 314.703 795.183 314.068 796.989H317.535V788.762H319.732V809.001H317.535V798.845H313.263C311.912 801.49 309.755 803.679 306.793 805.412L305.475 803.752ZM360.714 790.69C360.714 791.805 360.685 792.802 360.628 793.681C360.571 794.56 360.437 795.533 360.226 796.599H363.277V798.503H354.317V802.092H352.022V798.503H343.258V796.599H357.894C358.114 795.557 358.256 794.613 358.321 793.767C358.386 792.92 358.419 791.984 358.419 790.959H345.748V789.079H360.714V790.69ZM345.772 800.871H348.043V803.483H358.37V800.871H360.689V809.782H345.772V800.871ZM358.37 807.927V805.314H348.043V807.927H358.37ZM382.73 793.522H369.889V791.618H375.162V788.469H377.53V791.618H382.73V793.522ZM371.183 800.212C371.183 799.235 371.402 798.361 371.842 797.587C372.289 796.814 372.904 796.212 373.685 795.781C374.474 795.349 375.366 795.134 376.358 795.134C377.335 795.134 378.214 795.349 378.995 795.781C379.785 796.212 380.403 796.814 380.851 797.587C381.298 798.361 381.526 799.235 381.534 800.212C381.526 801.188 381.294 802.063 380.838 802.836C380.391 803.61 379.776 804.216 378.995 804.655C378.214 805.095 377.335 805.314 376.358 805.314C375.366 805.314 374.474 805.095 373.685 804.655C372.904 804.216 372.289 803.61 371.842 802.836C371.402 802.063 371.183 801.188 371.183 800.212ZM373.282 800.212C373.282 800.822 373.412 801.368 373.673 801.848C373.933 802.32 374.295 802.686 374.759 802.946C375.231 803.199 375.764 803.321 376.358 803.312C376.944 803.321 377.469 803.199 377.933 802.946C378.397 802.686 378.763 802.32 379.032 801.848C379.3 801.368 379.435 800.822 379.435 800.212C379.435 799.61 379.3 799.073 379.032 798.601C378.763 798.129 378.397 797.762 377.933 797.502C377.469 797.233 376.944 797.095 376.358 797.087C375.764 797.095 375.231 797.233 374.759 797.502C374.295 797.762 373.933 798.129 373.673 798.601C373.412 799.073 373.282 799.61 373.282 800.212ZM382.34 795.451H385.807V788.2H388.102V810.075H385.807V802.775H382.364V800.896H385.807V797.355H382.34V795.451ZM404.576 791.936C404.576 792.871 404.796 793.771 405.235 794.633C405.683 795.488 406.318 796.249 407.14 796.916C407.97 797.583 408.938 798.096 410.045 798.454L408.849 800.236C407.612 799.846 406.525 799.243 405.589 798.43C404.662 797.616 403.945 796.656 403.441 795.549C402.944 796.737 402.22 797.779 401.268 798.674C400.316 799.561 399.197 800.228 397.911 800.676L396.715 798.845C397.83 798.47 398.802 797.929 399.632 797.221C400.462 796.513 401.101 795.703 401.549 794.792C402.005 793.881 402.232 792.928 402.232 791.936V791.521H397.325V789.641H409.386V791.521H404.576V791.936ZM400.23 801.994H414.61V809.807H400.23V801.994ZM412.34 807.927V803.85H402.525V807.927H412.34ZM412.291 788.225H414.61V800.92H412.291V788.225Z" fill="black"/>
<path d="M142.35 733.691C142.35 734.644 142.561 735.559 142.984 736.438C143.416 737.317 144.03 738.094 144.828 738.77C145.625 739.445 146.557 739.958 147.623 740.308L146.378 742.139C145.198 741.724 144.164 741.109 143.277 740.295C142.398 739.473 141.719 738.517 141.239 737.427C140.759 738.672 140.059 739.754 139.139 740.674C138.228 741.593 137.141 742.285 135.88 742.749L134.635 740.894C135.758 740.495 136.722 739.925 137.528 739.185C138.342 738.444 138.964 737.585 139.396 736.609C139.827 735.624 140.047 734.587 140.055 733.496V731.348H142.35V733.691ZM137.589 747.974C137.589 747.127 137.882 746.399 138.468 745.789C139.062 745.178 139.908 744.714 141.007 744.397C142.114 744.08 143.424 743.921 144.938 743.921C146.427 743.921 147.717 744.08 148.807 744.397C149.898 744.714 150.732 745.178 151.31 745.789C151.896 746.399 152.188 747.127 152.188 747.974C152.188 748.828 151.896 749.561 151.31 750.171C150.732 750.781 149.898 751.241 148.807 751.55C147.725 751.868 146.435 752.026 144.938 752.026C143.424 752.026 142.114 751.868 141.007 751.55C139.908 751.241 139.062 750.781 138.468 750.171C137.882 749.561 137.589 748.828 137.589 747.974ZM139.908 747.974C139.9 748.69 140.335 749.239 141.214 749.622C142.101 750.004 143.342 750.203 144.938 750.22C146.524 750.203 147.753 750.004 148.624 749.622C149.495 749.239 149.926 748.69 149.918 747.974C149.918 747.51 149.723 747.111 149.332 746.777C148.941 746.444 148.372 746.191 147.623 746.021C146.874 745.841 145.979 745.752 144.938 745.752C143.888 745.752 142.984 745.841 142.228 746.021C141.479 746.191 140.905 746.444 140.506 746.777C140.108 747.111 139.908 747.51 139.908 747.974ZM149.674 730.2H151.993V735.693H155.167V737.646H151.993V743.408H149.674V730.2ZM167.955 736.914C167.955 738.078 168.13 739.217 168.48 740.332C168.838 741.439 169.363 742.444 170.055 743.347C170.755 744.242 171.593 744.954 172.569 745.483L171.275 747.192C170.242 746.647 169.355 745.882 168.614 744.897C167.874 743.913 167.3 742.782 166.893 741.504C166.486 742.871 165.912 744.092 165.172 745.166C164.439 746.24 163.561 747.087 162.535 747.705L161.168 745.947C162.145 745.378 162.979 744.613 163.67 743.652C164.362 742.692 164.883 741.63 165.233 740.466C165.591 739.303 165.774 738.118 165.782 736.914V736.035H161.827V734.131H165.782V730.981H167.955V734.131H171.837V736.035H167.955V736.914ZM170.396 738.721H173.546V730.664H175.743V750.977H173.546V740.649H170.396V738.721ZM177.965 730.2H180.187V752.075H177.965V730.2ZM205.06 738.916H208.453V740.845H205.06V752.051H202.74V730.2H205.06V738.916ZM188.043 746.216C190.777 744.849 192.889 743.18 194.378 741.211C195.876 739.242 196.743 736.979 196.979 734.424H189.142V732.495H199.347C199.33 735.832 198.521 738.831 196.917 741.492C195.314 744.145 192.787 746.322 189.337 748.022L188.043 746.216ZM238.277 734.229H236.007V744.714C237.016 744.649 237.984 744.564 238.912 744.458L239.059 746.167C237.097 746.468 235.038 746.672 232.882 746.777C230.733 746.875 228.382 746.932 225.826 746.948L225.582 745.02C226.119 745.02 227.039 745.011 228.341 744.995V734.229H226.217V732.324H238.277V734.229ZM230.611 744.958C231.653 744.934 232.695 744.897 233.736 744.849V734.229H230.611V744.958ZM237.96 740.845H241.671V737.671H237.96V735.767H241.671V730.2H243.966V752.075H241.671V742.725H237.96V740.845ZM260.392 736.646C260.392 737.85 260.636 739.046 261.124 740.234C261.62 741.423 262.304 742.485 263.175 743.42C264.054 744.356 265.047 745.06 266.153 745.532L264.884 747.339C263.606 746.777 262.475 745.927 261.49 744.788C260.506 743.648 259.757 742.342 259.244 740.869C258.731 742.448 257.983 743.86 256.998 745.105C256.013 746.35 254.89 747.282 253.629 747.9L252.286 746.069C253.368 745.565 254.345 744.812 255.216 743.811C256.095 742.802 256.782 741.667 257.279 740.405C257.783 739.144 258.04 737.891 258.048 736.646V734.326H253.043V732.397H265.372V734.326H260.392V736.646ZM268.131 730.2H270.45V752.075H268.131V730.2ZM286.998 736.646C286.998 737.85 287.242 739.046 287.73 740.234C288.227 741.423 288.91 742.485 289.781 743.42C290.66 744.356 291.653 745.06 292.76 745.532L291.49 747.339C290.213 746.777 289.081 745.927 288.097 744.788C287.112 743.648 286.363 742.342 285.851 740.869C285.338 742.448 284.589 743.86 283.604 745.105C282.62 746.35 281.497 747.282 280.235 747.9L278.893 746.069C279.975 745.565 280.951 744.812 281.822 743.811C282.701 742.802 283.389 741.667 283.885 740.405C284.39 739.144 284.646 737.891 284.654 736.646V734.326H279.649V732.397H291.979V734.326H286.998V736.646ZM294.737 730.2H297.057V752.075H294.737V730.2ZM322.73 731.372C323.821 731.372 324.802 731.592 325.672 732.031C326.543 732.463 327.227 733.065 327.723 733.838C328.22 734.603 328.468 735.474 328.468 736.45C328.468 737.427 328.22 738.302 327.723 739.075C327.227 739.84 326.543 740.442 325.672 740.881C324.802 741.313 323.821 741.528 322.73 741.528C321.64 741.528 320.655 741.313 319.776 740.881C318.906 740.442 318.222 739.84 317.726 739.075C317.229 738.302 316.985 737.427 316.993 736.45C316.985 735.482 317.229 734.611 317.726 733.838C318.222 733.065 318.906 732.463 319.776 732.031C320.655 731.592 321.64 731.372 322.73 731.372ZM318.849 743.359H321.119V749.585C322.698 749.512 324.081 749.276 325.27 748.877L325.611 750.708C324.692 751.017 323.776 751.225 322.865 751.331C321.953 751.436 320.989 751.489 319.972 751.489H318.849V743.359ZM319.239 736.45C319.239 737.061 319.39 737.61 319.691 738.098C320 738.578 320.419 738.953 320.948 739.221C321.485 739.49 322.079 739.624 322.73 739.624C323.39 739.624 323.984 739.49 324.513 739.221C325.042 738.953 325.457 738.578 325.758 738.098C326.067 737.61 326.222 737.061 326.222 736.45C326.222 735.84 326.067 735.299 325.758 734.827C325.457 734.347 325.042 733.972 324.513 733.704C323.984 733.435 323.39 733.301 322.73 733.301C322.079 733.301 321.485 733.435 320.948 733.704C320.419 733.972 320 734.347 319.691 734.827C319.39 735.299 319.239 735.84 319.239 736.45ZM324.854 743.433H329.273V741.65H331.544V743.433H335.89V745.215H324.854V743.433ZM326.246 748.975C326.238 748.348 326.405 747.803 326.747 747.339C327.088 746.867 327.573 746.501 328.199 746.24C328.826 745.98 329.55 745.85 330.372 745.85C331.178 745.85 331.89 745.98 332.508 746.24C333.135 746.501 333.623 746.867 333.973 747.339C334.323 747.803 334.498 748.348 334.498 748.975C334.498 749.593 334.323 750.13 333.973 750.586C333.623 751.05 333.135 751.404 332.508 751.648C331.89 751.9 331.178 752.026 330.372 752.026C329.558 752.026 328.838 751.9 328.211 751.648C327.585 751.404 327.097 751.05 326.747 750.586C326.405 750.13 326.238 749.593 326.246 748.975ZM328.297 748.975C328.297 749.414 328.488 749.764 328.871 750.024C329.261 750.285 329.762 750.415 330.372 750.415C330.974 750.415 331.463 750.285 331.837 750.024C332.219 749.764 332.415 749.414 332.423 748.975C332.415 748.535 332.219 748.181 331.837 747.913C331.463 747.644 330.974 747.51 330.372 747.51C329.762 747.51 329.261 747.644 328.871 747.913C328.488 748.181 328.297 748.535 328.297 748.975ZM331.52 730.2H333.839V734.985H337.013V736.914H333.839V741.089H331.52V730.2ZM353.219 730.664C354.814 730.664 356.197 730.831 357.369 731.165C358.541 731.49 359.444 731.97 360.079 732.605C360.714 733.24 361.031 733.993 361.031 734.863C361.031 735.718 360.714 736.458 360.079 737.085C359.444 737.703 358.541 738.175 357.369 738.501C356.197 738.826 354.814 738.989 353.219 738.989C351.632 738.989 350.248 738.826 349.068 738.501C347.896 738.175 346.993 737.703 346.358 737.085C345.724 736.458 345.406 735.718 345.406 734.863C345.406 733.993 345.724 733.24 346.358 732.605C346.993 731.97 347.896 731.49 349.068 731.165C350.248 730.831 351.632 730.664 353.219 730.664ZM343.258 740.674H363.204V742.554H343.258V740.674ZM345.65 744.507H360.763V751.807H345.65V744.507ZM347.799 734.863C347.799 735.343 348.014 735.758 348.446 736.108C348.877 736.45 349.5 736.715 350.313 736.902C351.127 737.089 352.096 737.183 353.219 737.183C354.334 737.183 355.298 737.089 356.112 736.902C356.926 736.715 357.548 736.45 357.979 736.108C358.419 735.758 358.639 735.343 358.639 734.863C358.639 734.367 358.423 733.944 357.992 733.594C357.56 733.236 356.942 732.963 356.136 732.776C355.339 732.589 354.391 732.495 353.292 732.495C351.575 732.495 350.228 732.703 349.251 733.118C348.275 733.525 347.791 734.106 347.799 734.863ZM358.517 749.927V746.362H347.945V749.927H358.517Z" fill="black"/>
<path d="M135.454 629.754H131.675V603.035H135.454V629.754ZM113.921 614.402C113.921 612.498 114.219 610.828 114.814 609.393C115.42 607.957 116.255 606.854 117.319 606.082C118.394 605.301 119.614 604.91 120.981 604.91C122.319 604.91 123.516 605.301 124.57 606.082C125.635 606.854 126.47 607.957 127.075 609.393C127.681 610.828 127.983 612.498 127.983 614.402C127.983 616.316 127.681 617.996 127.075 619.441C126.47 620.877 125.635 621.985 124.57 622.767C123.516 623.538 122.319 623.924 120.981 623.924C119.614 623.924 118.394 623.538 117.319 622.767C116.255 621.985 115.42 620.877 114.814 619.441C114.219 617.996 113.921 616.316 113.921 614.402ZM117.524 614.402C117.524 615.701 117.666 616.814 117.949 617.742C118.232 618.66 118.633 619.358 119.15 619.837C119.678 620.306 120.288 620.535 120.981 620.525C121.655 620.535 122.246 620.306 122.754 619.837C123.271 619.358 123.672 618.66 123.955 617.742C124.238 616.814 124.38 615.701 124.38 614.402C124.38 613.104 124.238 611.995 123.955 611.077C123.672 610.159 123.271 609.466 122.754 608.997C122.246 608.519 121.655 608.279 120.981 608.279C120.288 608.279 119.678 608.519 119.15 608.997C118.633 609.466 118.232 610.159 117.949 611.077C117.666 611.995 117.524 613.104 117.524 614.402ZM163.528 622.723H159.808V613.113H154.886V618.504H142.2V604.793H145.95V608.895H151.194V604.793H154.886V610.125H159.808V603.064H163.528V622.723ZM145.774 620.76H149.554V626.238H164.085V629.227H145.774V620.76ZM151.194 615.574V611.736H145.95V615.574H151.194ZM186.454 609.744C186.444 612.127 186.82 614.3 187.582 616.263C188.344 618.226 189.579 619.754 191.288 620.848L189.267 623.748C187.128 622.459 185.59 620.315 184.652 617.317C184.154 618.89 183.495 620.276 182.675 621.478C181.854 622.679 180.858 623.631 179.687 624.334L177.401 621.58C179.267 620.428 180.634 618.812 181.503 616.731C182.382 614.651 182.821 612.381 182.821 609.92V605.32H186.454V609.744ZM188.476 612.029H191.933V603.416H195.419V628.465H191.933V615.076H188.476V612.029ZM197.44 603.035H201.015V629.695H197.44V603.035ZM227.565 619.764H208.698V604.998H227.36V608.016H212.507V610.828H226.745V613.758H212.507V616.805H227.565V619.764ZM205.827 623.543H230.231V626.59H205.827V623.543Z" fill="black"/>
<path d="M265.081 629.695H261.302V603.035H265.081V629.695ZM242.61 620.525C243.216 620.525 244.241 620.516 245.687 620.496V608.484H243.343V605.496H258.431V608.484H256.058V620.071C257.122 619.993 258.274 619.881 259.515 619.734L259.69 622.518C257.171 622.928 254.559 623.201 251.854 623.338C249.158 623.475 246.194 623.553 242.962 623.572L242.61 620.525ZM249.319 620.423C250.706 620.384 251.741 620.345 252.425 620.306V608.484H249.319V620.423ZM292.335 618.357H273.468V605.262H292.13V608.279H277.159V615.369H292.335V618.357ZM270.597 623.367H295.001V626.443H270.597V623.367ZM303.007 608.514H306.64V604.705H310.097V617.625H299.462V604.705H303.007V608.514ZM303.007 620.32H321.435V629.695H317.714V623.309H303.007V620.32ZM306.64 614.666V611.355H303.007V614.666H306.64ZM312.177 603.533H315.663V609.568H317.89V603.064H321.435V619.119H317.89V612.586H315.663V618.973H312.177V603.533Z" fill="#E65C4F"/>
<rect x="53" y="200" width="890" height="340" rx="20" fill="#E9EEF4"/>
<path d="M830 427.5C830 465.332 799.332 496 761.5 496C723.668 496 693 465.332 693 427.5C693 389.669 723.668 359 761.5 359C799.332 359 830 389.669 830 427.5ZM703.96 427.5C703.96 459.278 729.722 485.04 761.5 485.04C793.278 485.04 819.04 459.278 819.04 427.5C819.04 395.722 793.278 369.96 761.5 369.96C729.722 369.96 703.96 395.722 703.96 427.5Z" fill="#E9EEF4"/>
<path d="M761.5 359C778.551 359 794.99 365.36 807.601 376.835C820.213 388.311 828.091 404.078 829.696 421.054C831.301 438.029 826.516 454.993 816.278 468.629C806.04 482.264 791.085 491.592 774.336 494.787C757.586 497.982 740.247 494.815 725.709 485.906C711.17 476.997 700.477 462.985 695.72 446.611C690.963 430.237 692.484 412.677 699.985 397.364C707.487 382.052 720.43 370.087 736.283 363.81L740.318 374.001C727.001 379.273 716.129 389.323 709.827 402.186C703.526 415.048 702.249 429.799 706.245 443.553C710.241 457.308 719.223 469.077 731.435 476.561C743.648 484.045 758.213 486.705 772.282 484.021C786.351 481.337 798.914 473.502 807.514 462.048C816.114 450.594 820.133 436.345 818.785 422.085C817.437 407.825 810.819 394.581 800.225 384.942C789.631 375.302 775.823 369.96 761.5 369.96L761.5 359Z" fill="url(#paint0_radial_66_106)"/>
<path d="M744.386 409.16C752.101 409.16 759.083 413.75 759.083 426.543C759.132 438.408 753.224 445.488 744.19 445.488C736.72 445.488 731.69 440.801 731.007 434.746H739.259C739.747 437.139 741.651 438.359 744.19 438.359C748.634 438.359 750.831 434.307 750.88 427.764H750.636C749.073 430.938 745.558 432.793 741.554 432.793C735.206 432.793 730.665 428.057 730.665 421.562C730.616 414.238 736.183 409.16 744.386 409.16ZM744.435 415.557C741.114 415.557 738.722 418.096 738.722 421.27C738.771 424.492 741.065 426.982 744.386 426.982C747.608 426.982 750.099 424.395 750.099 421.27C750.05 418.145 747.657 415.557 744.435 415.557ZM765.233 439.043V432.549L779.882 409.648H790.38V432.5H794.677V439.043H790.38V445H782.421V439.043H765.233ZM773.534 432.5H782.567V418.486H782.274L773.534 432.207V432.5Z" fill="#070417"/>
<path d="M748.792 324.565V327.845C750.555 327.755 752.33 327.598 754.003 327.351L754.205 329.192C749.646 330.023 744.771 330.068 741.2 330.068L740.886 328.047C742.469 328.036 744.333 328.024 746.299 327.957V324.565H748.792ZM753.172 316.188V318.209H748.837C748.949 320.376 750.667 322.331 753.733 323.105L752.588 325.06C750.185 324.408 748.466 323.004 747.557 321.196C746.658 323.105 744.962 324.565 742.548 325.217L741.357 323.33C744.423 322.488 746.108 320.489 746.254 318.209H741.964V316.188H746.299V313.874H748.792V316.188H753.172ZM757.709 313.694V334.021H755.216V313.694H757.709ZM780.148 313.694V333.999H777.768V323.645H775.477V332.966H773.186V314.076H775.477V321.646H777.768V313.694H780.148ZM770.895 316.098V318.119H765.818V327.148C768.031 327.126 769.85 327.014 771.905 326.632L772.085 328.676C769.637 329.17 767.503 329.237 764.673 329.26H763.303V316.098H770.895Z" fill="black"/>
<path d="M570 427.5C570 465.332 539.332 496 501.5 496C463.668 496 433 465.332 433 427.5C433 389.669 463.668 359 501.5 359C539.332 359 570 389.669 570 427.5ZM443.96 427.5C443.96 459.278 469.722 485.04 501.5 485.04C533.278 485.04 559.04 459.278 559.04 427.5C559.04 395.722 533.278 369.96 501.5 369.96C469.722 369.96 443.96 395.722 443.96 427.5Z" fill="#E9EEF4"/>
<path d="M501.5 359C515.598 359 529.353 363.35 540.888 371.457C552.422 379.563 561.175 391.032 565.95 404.296C570.726 417.561 571.292 431.977 567.572 445.575C563.852 459.174 556.027 471.294 545.164 480.28C534.301 489.267 520.929 494.683 506.874 495.789C492.82 496.895 478.766 493.637 466.631 486.461C454.496 479.284 444.871 468.538 439.069 455.689C433.267 442.839 431.572 428.513 434.213 414.664L444.979 416.718C442.76 428.351 444.184 440.385 449.058 451.179C453.931 461.972 462.016 470.999 472.21 477.027C482.403 483.055 494.208 485.792 506.015 484.863C517.821 483.933 529.052 479.384 538.177 471.835C547.302 464.287 553.876 454.106 557.001 442.683C560.126 431.26 559.65 419.152 555.638 408.009C551.627 396.867 544.275 387.233 534.586 380.424C524.897 373.614 513.343 369.96 501.5 369.96L501.5 359Z" fill="url(#paint1_radial_66_106)"/>
<path d="M474.413 445L488.866 416.631V416.387H471.972V409.648H497.509V416.436L483.007 445H474.413ZM517.282 445.488C508.981 445.488 502.976 441.191 502.976 435.43C502.976 431.035 506.442 427.471 510.935 426.787V426.543C507.028 425.811 504.294 422.637 504.294 418.73C504.294 413.213 509.763 409.16 517.282 409.16C524.704 409.16 530.222 413.213 530.222 418.73C530.222 422.637 527.39 425.811 523.581 426.543V426.787C527.976 427.471 531.54 431.035 531.54 435.43C531.54 441.191 525.534 445.488 517.282 445.488ZM517.282 439.336C520.554 439.336 522.8 437.334 522.8 434.551C522.8 431.768 520.456 429.717 517.282 429.717C514.06 429.717 511.667 431.768 511.716 434.551C511.667 437.334 513.962 439.336 517.282 439.336ZM517.282 424.004C520.065 424.004 522.067 422.197 522.067 419.609C522.067 417.119 520.065 415.312 517.282 415.312C514.401 415.312 512.448 417.07 512.448 419.609C512.448 422.148 514.45 424.004 517.282 424.004Z" fill="#070417"/>
<path d="M492.139 317.131H490.342V322.892C491.188 322.825 491.914 322.754 492.521 322.679V320.859H495.306V319.107H492.521V317.108H495.306V313.694H497.799V326.138H495.306V322.858H492.577L492.678 324.521C490.956 324.805 489.136 324.996 487.22 325.093C485.303 325.183 483.259 325.232 481.088 325.239L480.818 323.173C481.807 323.173 482.57 323.169 483.109 323.162V317.131H481.335V315.109H492.139V317.131ZM484.03 330.248C484.023 329.462 484.292 328.788 484.839 328.227C485.393 327.658 486.187 327.227 487.22 326.935C488.26 326.643 489.496 326.497 490.926 326.497C492.363 326.497 493.602 326.643 494.643 326.935C495.684 327.227 496.481 327.654 497.035 328.215C497.589 328.777 497.866 329.454 497.866 330.248C497.866 331.019 497.589 331.686 497.035 332.247C496.481 332.809 495.684 333.235 494.643 333.527C493.602 333.827 492.363 333.977 490.926 333.977C489.503 333.977 488.272 333.827 487.231 333.527C486.19 333.235 485.393 332.809 484.839 332.247C484.292 331.686 484.023 331.019 484.03 330.248ZM485.535 323.128C486.059 323.113 486.86 323.083 487.938 323.038V317.131H485.535V323.128ZM486.501 330.248C486.493 330.832 486.872 331.278 487.635 331.584C488.399 331.891 489.496 332.045 490.926 332.045C492.363 332.045 493.464 331.891 494.228 331.584C494.991 331.278 495.373 330.832 495.373 330.248C495.373 329.649 494.987 329.192 494.216 328.878C493.453 328.563 492.356 328.406 490.926 328.406C489.496 328.406 488.399 328.563 487.635 328.878C486.872 329.192 486.493 329.649 486.501 330.248ZM518.958 316.39V317.086C518.958 317.977 518.928 318.827 518.868 319.635C518.816 320.444 518.707 321.309 518.542 322.229H521.227V324.251H516.397V328.833H513.972V324.251H511.276V328.833H508.828V324.251H502.674V322.229H516.016C516.203 321.219 516.323 320.294 516.375 319.456C516.435 318.617 516.465 317.692 516.465 316.682H504.942V314.728H518.958V316.39ZM504.763 327.081H507.256V331.573H519.497V333.595H504.763V327.081Z" fill="black"/>
<path d="M310 427.5C310 465.332 279.332 496 241.5 496C203.668 496 173 465.332 173 427.5C173 389.669 203.668 359 241.5 359C279.332 359 310 389.669 310 427.5ZM183.96 427.5C183.96 459.278 209.722 485.04 241.5 485.04C273.278 485.04 299.04 459.278 299.04 427.5C299.04 395.722 273.278 369.96 241.5 369.96C209.722 369.96 183.96 395.722 183.96 427.5Z" fill="#E9EEF4"/>
<path d="M241.5 359C252.674 359 263.678 361.733 273.553 366.962C283.428 372.191 291.874 379.756 298.155 388.997C304.436 398.239 308.36 408.877 309.586 419.983C310.812 431.09 309.303 442.327 305.19 452.717C301.076 463.106 294.484 472.331 285.987 479.588C277.491 486.845 267.348 491.913 256.443 494.35C245.538 496.788 234.203 496.521 223.425 493.572C212.647 490.624 202.754 485.083 194.609 477.434L202.111 469.445C208.953 475.87 217.263 480.524 226.317 483.001C235.37 485.477 244.892 485.702 254.052 483.654C263.212 481.607 271.732 477.35 278.869 471.254C286.006 465.158 291.544 457.409 294.999 448.682C298.455 439.955 299.722 430.515 298.693 421.186C297.663 411.857 294.366 402.921 289.09 395.158C283.814 387.395 276.72 381.04 268.425 376.648C260.13 372.256 250.886 369.96 241.5 369.96L241.5 359Z" fill="url(#paint2_radial_66_106)"/>
<path d="M225.961 445.488C218.246 445.488 211.215 440.898 211.215 427.959C211.264 416.24 217.123 409.16 226.156 409.16C233.578 409.16 238.607 413.896 239.291 419.805H231.088C230.551 417.51 228.646 416.289 226.156 416.289C221.664 416.289 219.467 420.342 219.467 426.787H219.711C221.225 423.613 224.789 421.709 228.744 421.709C235.141 421.709 239.682 426.445 239.682 433.037C239.682 440.41 234.115 445.488 225.961 445.488ZM225.912 439.043C229.184 439.043 231.625 436.602 231.576 433.281C231.625 430.01 229.232 427.568 225.961 427.568C222.689 427.568 220.248 430.059 220.248 433.33C220.248 436.504 222.641 439.043 225.912 439.043ZM246.467 445V438.994L259.357 427.666C262.336 424.932 264.045 423.125 264.094 420.439C264.045 417.51 261.896 415.654 258.918 415.654C255.891 415.654 253.889 417.559 253.889 420.781H245.979C245.979 413.652 251.203 409.16 258.967 409.16C266.926 409.16 272.15 413.457 272.15 419.805C272.15 423.857 270.148 427.227 262.482 433.916L258.039 438.018V438.262H272.59V445H246.467Z" fill="#070417"/>
<path d="M228.792 327.856C230.739 327.744 232.476 327.575 234.003 327.351L234.205 329.192C232.311 329.544 230.357 329.78 228.343 329.9C226.329 330.012 224.199 330.068 221.953 330.068H221.2L220.886 328.047C223.244 328.032 225.049 328.006 226.299 327.968V324.565H228.792V327.856ZM221.357 323.33C222.353 323.053 223.207 322.66 223.918 322.151C224.637 321.634 225.191 321.039 225.58 320.365C225.969 319.691 226.19 318.973 226.243 318.209H221.964V316.188H226.299V313.874H228.792V316.188H233.172V318.209H228.826C228.871 318.935 229.088 319.624 229.477 320.275C229.874 320.927 230.432 321.5 231.15 321.994C231.877 322.48 232.738 322.851 233.733 323.105L232.588 325.06C231.405 324.738 230.387 324.247 229.533 323.588C228.68 322.922 228.017 322.128 227.545 321.208C227.089 322.173 226.437 323.004 225.591 323.701C224.745 324.389 223.731 324.895 222.548 325.217L221.357 323.33ZM235.216 313.694H237.709V334.021H235.216V313.694ZM261.227 331.483H242.674V329.462H250.625V324.768H253.096V329.462H261.227V331.483ZM243.213 323.195C244.598 322.971 245.845 322.518 246.953 321.836C248.061 321.148 248.929 320.324 249.558 319.366C250.194 318.407 250.513 317.423 250.513 316.412V314.93H253.163V316.412C253.163 317.43 253.478 318.419 254.106 319.377C254.743 320.335 255.619 321.155 256.734 321.836C257.857 322.518 259.115 322.971 260.508 323.195L259.43 325.262C257.715 324.94 256.188 324.315 254.848 323.386C253.515 322.45 252.512 321.316 251.838 319.983C251.164 321.316 250.161 322.45 248.828 323.386C247.503 324.315 245.991 324.94 244.291 325.262L243.213 323.195Z" fill="black"/>
<path d="M135.454 260.754H131.675V234.035H135.454V260.754ZM113.921 245.402C113.921 243.498 114.219 241.828 114.814 240.393C115.42 238.957 116.255 237.854 117.319 237.082C118.394 236.301 119.614 235.91 120.981 235.91C122.319 235.91 123.516 236.301 124.57 237.082C125.635 237.854 126.47 238.957 127.075 240.393C127.681 241.828 127.983 243.498 127.983 245.402C127.983 247.316 127.681 248.996 127.075 250.441C126.47 251.877 125.635 252.985 124.57 253.767C123.516 254.538 122.319 254.924 120.981 254.924C119.614 254.924 118.394 254.538 117.319 253.767C116.255 252.985 115.42 251.877 114.814 250.441C114.219 248.996 113.921 247.316 113.921 245.402ZM117.524 245.402C117.524 246.701 117.666 247.814 117.949 248.742C118.232 249.66 118.633 250.358 119.15 250.837C119.678 251.306 120.288 251.535 120.981 251.525C121.655 251.535 122.246 251.306 122.754 250.837C123.271 250.358 123.672 249.66 123.955 248.742C124.238 247.814 124.38 246.701 124.38 245.402C124.38 244.104 124.238 242.995 123.955 242.077C123.672 241.159 123.271 240.466 122.754 239.997C122.246 239.519 121.655 239.279 120.981 239.279C120.288 239.279 119.678 239.519 119.15 239.997C118.633 240.466 118.232 241.159 117.949 242.077C117.666 242.995 117.524 244.104 117.524 245.402ZM163.528 253.723H159.808V244.113H154.886V249.504H142.2V235.793H145.95V239.895H151.194V235.793H154.886V241.125H159.808V234.064H163.528V253.723ZM145.774 251.76H149.554V257.238H164.085V260.227H145.774V251.76ZM151.194 246.574V242.736H145.95V246.574H151.194ZM186.454 240.744C186.444 243.127 186.82 245.3 187.582 247.263C188.344 249.226 189.579 250.754 191.288 251.848L189.267 254.748C187.128 253.459 185.59 251.315 184.652 248.317C184.154 249.89 183.495 251.276 182.675 252.478C181.854 253.679 180.858 254.631 179.687 255.334L177.401 252.58C179.267 251.428 180.634 249.812 181.503 247.731C182.382 245.651 182.821 243.381 182.821 240.92V236.32H186.454V240.744ZM188.476 243.029H191.933V234.416H195.419V259.465H191.933V246.076H188.476V243.029ZM197.44 234.035H201.015V260.695H197.44V234.035ZM227.565 250.764H208.698V235.998H227.36V239.016H212.507V241.828H226.745V244.758H212.507V247.805H227.565V250.764ZM205.827 254.543H230.231V257.59H205.827V254.543Z" fill="black"/>
<path d="M265.14 249.855H261.419V243.557H257.259V240.539H261.419V234.035H265.14V249.855ZM242.493 246.926C243.89 246.457 245.066 245.788 246.023 244.919C246.98 244.05 247.698 243.073 248.177 241.989C248.655 240.905 248.909 239.787 248.938 238.635H243.577V235.646H258.05V238.635H252.747C252.776 239.709 253.016 240.744 253.465 241.74C253.914 242.727 254.593 243.615 255.501 244.406C256.419 245.197 257.542 245.812 258.87 246.252L257.024 249.182C255.599 248.723 254.368 248.039 253.333 247.131C252.308 246.213 251.497 245.139 250.901 243.908C250.296 245.305 249.451 246.521 248.367 247.556C247.283 248.581 245.97 249.357 244.427 249.885L242.493 246.926ZM246.858 255.598C246.858 254.533 247.225 253.615 247.957 252.844C248.699 252.062 249.759 251.467 251.136 251.057C252.513 250.646 254.144 250.441 256.028 250.441C257.923 250.441 259.559 250.646 260.936 251.057C262.312 251.467 263.372 252.058 264.114 252.829C264.856 253.601 265.228 254.523 265.228 255.598C265.228 256.672 264.856 257.59 264.114 258.352C263.372 259.123 262.312 259.709 260.936 260.109C259.559 260.52 257.923 260.725 256.028 260.725C254.144 260.725 252.513 260.52 251.136 260.109C249.759 259.709 248.699 259.123 247.957 258.352C247.225 257.58 246.858 256.662 246.858 255.598ZM250.579 255.598C250.579 256.35 251.043 256.921 251.971 257.312C252.898 257.692 254.251 257.883 256.028 257.883C257.815 257.883 259.173 257.692 260.101 257.312C261.028 256.931 261.497 256.359 261.507 255.598C261.497 254.846 261.033 254.279 260.115 253.898C259.207 253.508 257.879 253.312 256.131 253.312C252.43 253.312 250.579 254.074 250.579 255.598ZM291.925 241.682H295.323V244.758H291.925V252.17H288.175V234.064H291.925V241.682ZM270.304 248.742C273.077 248.742 275.235 248.723 276.778 248.684V247.189C275.313 246.984 274.161 246.54 273.321 245.856C272.491 245.173 272.081 244.328 272.091 243.322C272.091 242.512 272.359 241.804 272.896 241.198C273.434 240.593 274.195 240.134 275.182 239.821C276.168 239.499 277.315 239.338 278.624 239.338C279.923 239.338 281.065 239.499 282.052 239.821C283.038 240.134 283.8 240.593 284.337 241.198C284.884 241.804 285.157 242.512 285.157 243.322C285.147 244.328 284.728 245.173 283.897 245.856C283.077 246.53 281.944 246.97 280.499 247.175V248.552C283.038 248.415 285.187 248.234 286.944 248.01L287.208 250.588C284.708 251.027 282.125 251.315 279.459 251.452C276.793 251.579 273.868 251.643 270.685 251.643L270.304 248.742ZM271.007 235.998H276.778V233.83H280.499V235.998H286.271V238.723H271.007V235.998ZM273.702 253.254H291.925V260.695H288.175V256.125H273.702V253.254ZM275.665 243.322C275.655 243.801 275.899 244.177 276.397 244.45C276.905 244.714 277.623 244.846 278.551 244.846C279.518 244.846 280.26 244.714 280.777 244.45C281.305 244.187 281.573 243.811 281.583 243.322C281.573 242.326 280.587 241.828 278.624 241.828C276.642 241.828 275.655 242.326 275.665 243.322ZM320.263 248.918H312.528V254.602H322.929V257.648H298.524V254.602H308.808V248.918H301.396V235.91H320.058V238.898H305.146V245.959H320.263V248.918Z" fill="#E65C4F"/>
<path d="M1881 100.5C1881 138.332 1850.33 169 1812.5 169C1774.67 169 1744 138.332 1744 100.5C1744 62.6685 1774.67 32 1812.5 32C1850.33 32 1881 62.6685 1881 100.5ZM1754.96 100.5C1754.96 132.278 1780.72 158.04 1812.5 158.04C1844.28 158.04 1870.04 132.278 1870.04 100.5C1870.04 68.7215 1844.28 42.96 1812.5 42.96C1780.72 42.96 1754.96 68.7215 1754.96 100.5Z" fill="#E9EEF4"/>
<path d="M1812.5 32C1823.67 32 1834.68 34.7335 1844.55 39.962C1854.43 45.1906 1862.87 52.7556 1869.16 61.9973C1875.44 71.239 1879.36 81.8768 1880.59 92.9832C1881.81 104.09 1880.3 115.327 1876.19 125.717C1872.08 136.106 1865.48 145.331 1856.99 152.588C1848.49 159.845 1838.35 164.913 1827.44 167.35C1816.54 169.788 1805.2 169.521 1794.42 166.572C1783.65 163.624 1773.75 158.083 1765.61 150.434L1773.11 142.445C1779.95 148.87 1788.26 153.524 1797.32 156.001C1806.37 158.477 1815.89 158.702 1825.05 156.654C1834.21 154.607 1842.73 150.35 1849.87 144.254C1857.01 138.158 1862.54 130.409 1866 121.682C1869.45 112.955 1870.72 103.515 1869.69 94.1859C1868.66 84.8565 1865.37 75.9207 1860.09 68.1577C1854.81 60.3947 1847.72 54.0401 1839.42 49.6481C1831.13 45.2561 1821.89 42.96 1812.5 42.96L1812.5 32Z" fill="url(#paint3_radial_66_106)"/>
<path d="M1782.21 121V113.793L1797.67 100.199C1801.25 96.918 1803.3 94.75 1803.36 91.5273C1803.3 88.0117 1800.72 85.7852 1797.15 85.7852C1793.51 85.7852 1791.11 88.0703 1791.11 91.9375H1781.62C1781.62 83.3828 1787.89 77.9922 1797.21 77.9922C1806.76 77.9922 1813.03 83.1484 1813.03 90.7656C1813.03 95.6289 1810.62 99.6719 1801.42 107.699L1796.09 112.621V112.914H1813.55V121H1782.21ZM1840.69 78.5781V121H1830.67V87.9531H1830.44L1820.88 93.8125V85.1406L1831.37 78.5781H1840.69Z" fill="#070417"/>
<path d="M82.7485 116V84.1836H95.7563C102.919 84.1836 107.314 88.666 107.314 95.126C107.314 101.718 102.832 106.024 95.5366 106.024H90.2192V116H82.7485ZM90.2192 100.092H94.1743C97.6899 100.092 99.5796 98.1143 99.5796 95.126C99.5796 92.1377 97.6899 90.248 94.1743 90.248H90.2192V100.092ZM142.932 100.092C142.932 110.595 136.34 116.439 127.815 116.439C119.246 116.439 112.698 110.551 112.698 100.092C112.698 89.5889 119.246 83.7441 127.815 83.7441C136.34 83.7441 142.932 89.5889 142.932 100.092ZM135.286 100.092C135.286 93.7637 132.473 90.3359 127.815 90.3359C123.157 90.3359 120.344 93.7637 120.344 100.092C120.344 106.42 123.157 109.848 127.815 109.848C132.473 109.848 135.286 106.42 135.286 100.092ZM166.553 93.6318C166.377 91.3027 164.664 89.9404 161.587 89.9404C158.555 89.9404 157.017 91.2588 156.973 93.0605C156.929 95.0381 158.863 96.0049 161.719 96.6201L164.488 97.2793C170.596 98.6416 174.156 101.674 174.2 106.771C174.156 112.792 169.498 116.439 161.587 116.439C153.677 116.439 148.536 112.836 148.404 105.541H155.611C155.787 108.617 158.072 110.199 161.5 110.199C164.664 110.199 166.553 108.793 166.597 106.771C166.553 104.926 164.927 103.959 161.412 103.168L158.072 102.377C152.579 101.103 149.239 98.3779 149.239 93.5879C149.195 87.6992 154.424 83.7441 161.631 83.7441C168.97 83.7441 173.672 87.7432 173.76 93.6318H166.553ZM180.067 116V84.1836H202.083V90.292H187.538V97.0156H200.941V103.124H187.538V109.892H202.127V116H180.067ZM220.937 116V84.1836H242.514V90.292H228.408V97.0156H241.108V103.124H228.408V116H220.937ZM255.852 84.1836V116H248.381V84.1836H255.852ZM261.587 90.292V84.1836H288.35V90.292H278.682V116H271.255V90.292H261.587Z" fill="#326789"/>
<defs>
<radialGradient id="paint0_radial_66_106" cx="0" cy="0" r="1" gradientUnits="userSpaceOnUse" gradientTransform="translate(711.838 300.775) rotate(42.7688) scale(186.623)">
<stop stop-color="white"/>
<stop offset="1" stop-color="#326789"/>
</radialGradient>
<radialGradient id="paint1_radial_66_106" cx="0" cy="0" r="1" gradientUnits="userSpaceOnUse" gradientTransform="translate(451.838 300.775) rotate(42.7688) scale(186.623)">
<stop stop-color="white"/>
<stop offset="1" stop-color="#326789"/>
</radialGradient>
<radialGradient id="paint2_radial_66_106" cx="0" cy="0" r="1" gradientUnits="userSpaceOnUse" gradientTransform="translate(191.838 300.775) rotate(42.7688) scale(186.623)">
<stop stop-color="white"/>
<stop offset="1" stop-color="#326789"/>
</radialGradient>
<radialGradient id="paint3_radial_66_106" cx="0" cy="0" r="1" gradientUnits="userSpaceOnUse" gradientTransform="translate(1762.84 -26.225) rotate(42.7688) scale(186.623)">
<stop stop-color="white"/>
<stop offset="1" stop-color="#E65C4F"/>
</radialGradient>
</defs>
</svg>
