<svg width="30" height="30" viewBox="0 0 30 30" fill="none" xmlns="http://www.w3.org/2000/svg">
<g clip-path="url(#clip0_170_75)">
<path d="M15 0.371094C6.7125 0.371094 0 7.08734 0 15.3711C0 21.9998 4.2975 27.6211 10.2563 29.6023C11.0063 29.7436 11.2812 29.2798 11.2812 28.8811C11.2812 28.5248 11.2688 27.5811 11.2625 26.3311C7.09 27.2361 6.21 24.3186 6.21 24.3186C5.5275 22.5873 4.54125 22.1248 4.54125 22.1248C3.1825 21.1948 4.64625 21.2136 4.64625 21.2136C6.1525 21.3186 6.94375 22.7586 6.94375 22.7586C8.28125 25.0523 10.455 24.3898 11.3125 24.0061C11.4475 23.0361 11.8338 22.3748 12.2625 21.9998C8.93125 21.6248 5.43 20.3348 5.43 14.5873C5.43 12.9498 6.01125 11.6123 6.97375 10.5623C6.805 10.1836 6.29875 8.65859 7.105 6.59234C7.105 6.59234 8.36125 6.18984 11.23 8.12984C12.43 7.79609 13.705 7.63109 14.98 7.62359C16.255 7.63109 17.53 7.79609 18.73 8.12984C21.58 6.18984 22.8362 6.59234 22.8362 6.59234C23.6425 8.65859 23.1362 10.1836 22.9862 10.5623C23.9425 11.6123 24.5238 12.9498 24.5238 14.5873C24.5238 20.3498 21.0175 21.6186 17.68 21.9873C18.205 22.4373 18.6925 23.3573 18.6925 24.7623C18.6925 26.7698 18.6737 28.3823 18.6737 28.8698C18.6737 29.2636 18.9363 29.7323 19.705 29.5823C25.7062 27.6148 30 21.9898 30 15.3711C30 7.08734 23.2838 0.371094 15 0.371094Z" fill="#333333"/>
</g>
<defs>
<clipPath id="clip0_170_75">
<rect width="30" height="30" fill="white"/>
</clipPath>
</defs>
</svg>
