<svg width="500" height="400" viewBox="0 0 500 400" fill="none" xmlns="http://www.w3.org/2000/svg">
<g clip-path="url(#clip0_116_319)">
<rect width="500" height="400" rx="10" fill="white"/>
<rect x="41" y="344" width="420" height="41" rx="10" fill="#326789"/>
<path d="M235.075 363.8H233.214V360.489H230.709V359.01H233.214V357.018H235.075V363.8ZM223.737 362.423C224.45 362.213 225.045 361.905 225.524 361.5C226.002 361.095 226.356 360.628 226.586 360.101C226.82 359.574 226.94 359.015 226.945 358.424V357.457H228.834V358.424C228.829 358.971 228.937 359.493 229.157 359.991C229.376 360.484 229.713 360.924 230.167 361.31C230.626 361.69 231.198 361.983 231.881 362.188L230.9 363.624C230.202 363.404 229.601 363.082 229.098 362.657C228.595 362.228 228.195 361.72 227.897 361.134C227.594 361.793 227.177 362.359 226.644 362.833C226.112 363.307 225.465 363.663 224.704 363.902L223.737 362.423ZM226.212 364.356H235.075V367.916H228.073V368.736H235.455V370.201H226.227V366.554H233.229V365.792H226.212V364.356ZM248.238 364.928H246.378V361.778H244.298V360.27H246.378V357.018H248.238V364.928ZM236.915 363.463C237.613 363.229 238.202 362.894 238.68 362.459C239.159 362.025 239.518 361.537 239.757 360.995C239.996 360.453 240.123 359.894 240.138 359.317H237.457V357.823H244.694V359.317H242.042C242.057 359.854 242.176 360.372 242.401 360.87C242.626 361.363 242.965 361.808 243.419 362.203C243.878 362.599 244.44 362.906 245.104 363.126L244.181 364.591C243.468 364.361 242.853 364.02 242.335 363.565C241.822 363.106 241.417 362.569 241.119 361.954C240.817 362.652 240.394 363.26 239.852 363.778C239.31 364.291 238.654 364.679 237.882 364.942L236.915 363.463ZM239.098 367.799C239.098 367.267 239.281 366.808 239.647 366.422C240.018 366.031 240.548 365.733 241.237 365.528C241.925 365.323 242.74 365.221 243.683 365.221C244.63 365.221 245.448 365.323 246.136 365.528C246.825 365.733 247.355 366.029 247.726 366.415C248.097 366.8 248.282 367.262 248.282 367.799C248.282 368.336 248.097 368.795 247.726 369.176C247.355 369.562 246.825 369.854 246.136 370.055C245.448 370.26 244.63 370.362 243.683 370.362C242.74 370.362 241.925 370.26 241.237 370.055C240.548 369.854 240.018 369.562 239.647 369.176C239.281 368.79 239.098 368.331 239.098 367.799ZM240.958 367.799C240.958 368.175 241.19 368.46 241.654 368.656C242.118 368.846 242.794 368.941 243.683 368.941C244.576 368.941 245.255 368.846 245.719 368.656C246.183 368.465 246.417 368.18 246.422 367.799C246.417 367.423 246.185 367.14 245.726 366.949C245.272 366.754 244.608 366.656 243.734 366.656C241.883 366.656 240.958 367.037 240.958 367.799ZM264.342 362.232H266.304V363.771H264.342V370.348H262.496V357.018H264.342V362.232ZM253.751 359.01H256.768V357.223H258.643V359.01H261.588V360.504H253.751V359.01ZM254.293 364.43C254.293 363.819 254.439 363.272 254.732 362.789C255.025 362.306 255.43 361.93 255.948 361.661C256.471 361.388 257.056 361.251 257.706 361.251C258.346 361.251 258.924 361.388 259.442 361.661C259.959 361.93 260.365 362.306 260.658 362.789C260.955 363.272 261.104 363.819 261.104 364.43C261.104 365.04 260.955 365.587 260.658 366.07C260.365 366.549 259.959 366.925 259.442 367.198C258.924 367.472 258.346 367.608 257.706 367.608C257.056 367.608 256.471 367.472 255.948 367.198C255.43 366.925 255.025 366.549 254.732 366.07C254.439 365.587 254.293 365.04 254.293 364.43ZM256.08 364.43C256.08 364.767 256.148 365.06 256.285 365.309C256.427 365.558 256.619 365.748 256.864 365.88C257.108 366.012 257.388 366.075 257.706 366.07C258.018 366.075 258.297 366.012 258.541 365.88C258.785 365.748 258.975 365.558 259.112 365.309C259.249 365.06 259.317 364.767 259.317 364.43C259.317 364.093 259.249 363.8 259.112 363.551C258.975 363.302 258.785 363.109 258.541 362.972C258.297 362.835 258.018 362.765 257.706 362.76C257.388 362.765 257.108 362.835 256.864 362.972C256.619 363.109 256.427 363.302 256.285 363.551C256.148 363.8 256.08 364.093 256.08 364.43ZM278.194 370.348H276.304V357.018H278.194V370.348ZM267.032 366.568C268.17 366.031 269.107 365.433 269.844 364.774C270.587 364.115 271.153 363.385 271.544 362.584C271.939 361.778 272.188 360.875 272.291 359.874H267.75V358.409H274.195C274.19 359.835 273.997 361.131 273.616 362.298C273.235 363.465 272.588 364.537 271.675 365.514C270.767 366.49 269.546 367.34 268.013 368.062L267.032 366.568Z" fill="white"/>
<path d="M183.126 275.662C183.13 276.305 183.208 276.93 183.36 277.535C183.517 278.14 183.758 278.694 184.084 279.198C184.41 279.701 184.823 280.11 185.322 280.423L184.547 281.502C184.048 281.201 183.625 280.799 183.278 280.296C182.931 279.792 182.658 279.215 182.459 278.563C182.247 279.278 181.953 279.911 181.577 280.461C181.204 281.011 180.756 281.447 180.231 281.769L179.355 280.715C179.893 280.389 180.341 279.964 180.701 279.439C181.06 278.91 181.327 278.328 181.501 277.693C181.674 277.054 181.763 276.398 181.767 275.726V273.669H183.126V275.662ZM184.09 276.602H185.728V272.856H187.061V283.571H185.728V277.77H184.09V276.602ZM188.089 272.653H189.448V284.13H188.089V272.653ZM200.312 279.788H192.263V273.555H200.21V274.697H193.698V276.081H199.944V277.186H193.698V278.671H200.312V279.788ZM190.981 281.578H201.467V282.733H190.981V281.578Z" fill="black"/>
<rect x="85.5" y="263.5" width="87" height="29" rx="9.5" fill="white" stroke="#326789"/>
<path d="M156.112 284.112L150.916 275.112L161.308 275.112L156.112 284.112Z" fill="#326789"/>
<path d="M130.511 283H128.848V275.421H128.797L126.651 276.792V275.281L128.924 273.809H130.511V283Z" fill="black"/>
<path d="M45.2654 243.662C45.2697 244.305 45.3479 244.93 45.5003 245.535C45.6569 246.14 45.8981 246.694 46.2239 247.198C46.5498 247.701 46.9624 248.11 47.4617 248.423L46.6873 249.502C46.188 249.201 45.7648 248.799 45.4178 248.296C45.0708 247.792 44.7978 247.215 44.5989 246.563C44.3873 247.278 44.0932 247.911 43.7166 248.461C43.3442 249.011 42.8956 249.447 42.3709 249.769L41.4949 248.715C42.0324 248.389 42.4809 247.964 42.8406 247.439C43.2003 246.91 43.4669 246.328 43.6404 245.693C43.8139 245.054 43.9028 244.398 43.907 243.726V241.669H45.2654V243.662ZM46.2303 244.602H47.868V240.856H49.201V251.571H47.868V245.77H46.2303V244.602ZM50.2293 240.653H51.5877V252.13H50.2293V240.653ZM62.4518 247.788H54.4029V241.555H62.3502V242.697H55.8375V244.081H62.0836V245.186H55.8375V246.671H62.4518V247.788ZM53.1207 249.578H63.607V250.733H53.1207V249.578ZM73.8205 241.605C73.8163 242.088 73.9834 242.558 74.322 243.015C74.6647 243.472 75.1451 243.863 75.7629 244.189C76.385 244.515 77.0917 244.729 77.883 244.83L77.3244 245.973C76.3596 245.829 75.5048 245.533 74.76 245.084C74.0152 244.631 73.4545 244.079 73.0778 243.427C72.7012 244.079 72.1426 244.631 71.4021 245.084C70.6615 245.533 69.813 245.829 68.8566 245.973L68.298 244.83C69.0852 244.729 69.7855 244.515 70.3991 244.189C71.0127 243.863 71.4888 243.474 71.8273 243.021C72.1659 242.564 72.3352 242.092 72.3352 241.605V241.021H73.8205V241.605ZM67.841 246.963H78.302V248.131H73.7443V252.13H72.3479V248.131H67.841V246.963Z" fill="black"/>
<path d="M265.56 241.809V251H263.896V243.421H263.846L261.7 244.792V243.281L263.973 241.809H265.56ZM271.193 243.662C271.193 245.516 271.841 247.445 273.389 248.423L272.615 249.502C271.58 248.88 270.908 247.807 270.533 246.544C270.114 247.934 269.378 249.108 268.299 249.769L267.423 248.715C269.086 247.699 269.835 245.681 269.835 243.726V241.669H271.193V243.662ZM277.515 240.653V252.13H276.157V240.653H277.515ZM275.129 240.856V251.571H273.796V245.77H272.158V244.602H273.796V240.856H275.129ZM288.379 246.671V247.788H280.331V241.555H288.278V242.697H281.765V244.081H288.011V245.186H281.765V246.671H288.379ZM289.535 249.578V250.733H279.048V249.578H289.535ZM302.833 240.653V243.472H304.42V244.627H302.833V247.356H301.411V240.653H302.833ZM299.088 247.572C301.437 247.572 302.922 248.41 302.935 249.832C302.922 251.279 301.437 252.117 299.088 252.117C296.714 252.117 295.203 251.279 295.203 249.832C295.203 248.41 296.714 247.572 299.088 247.572ZM299.088 248.702C297.514 248.702 296.587 249.096 296.6 249.832C296.587 250.581 297.514 250.987 299.088 250.987C300.637 250.987 301.564 250.581 301.564 249.832C301.564 249.096 300.637 248.702 299.088 248.702ZM299.355 241.466V242.608H295.61V245.49C297.806 245.484 299.031 245.42 300.383 245.135L300.523 246.265C299.037 246.582 297.679 246.633 295.14 246.633H294.213V241.466H299.355ZM318.963 246.328V247.458H314.532V249.565H313.097V247.458H308.476V246.328H318.963ZM317.807 250.746V251.901H309.759V248.499H311.18V250.746H317.807ZM313.707 240.907C316.182 240.907 317.82 241.809 317.82 243.256C317.82 244.703 316.182 245.592 313.707 245.592C311.231 245.592 309.594 244.703 309.594 243.256C309.594 241.809 311.231 240.907 313.707 240.907ZM313.707 242.024C312.133 242.024 311.104 242.469 311.117 243.256C311.104 244.018 312.133 244.462 313.707 244.462C315.294 244.462 316.309 244.018 316.309 243.256C316.309 242.469 315.294 242.024 313.707 242.024ZM330.398 246.15V247.28H319.924V246.15H324.469V245.059H321.207V241.174H329.129V242.278H322.616V243.941H329.192V245.059H325.853V246.15H330.398ZM325.142 247.94C327.618 247.94 329.103 248.689 329.116 250.035C329.103 251.368 327.618 252.13 325.142 252.13C322.641 252.13 321.143 251.368 321.143 250.035C321.143 248.689 322.641 247.94 325.142 247.94ZM325.142 249.02C323.466 249.02 322.565 249.375 322.578 250.035C322.565 250.695 323.466 251.038 325.142 251.038C326.78 251.038 327.694 250.695 327.707 250.035C327.694 249.375 326.78 249.02 325.142 249.02ZM344.217 240.653V249.121H342.795V240.653H344.217ZM341.843 241.58V242.608H335.051V241.58H337.73V240.59H339.139V241.58H341.843ZM338.453 242.964C340.129 242.951 341.272 243.599 341.272 244.627C341.272 245.509 340.434 246.112 339.139 246.252V246.95C340.11 246.899 341.081 246.817 341.995 246.696L342.097 247.687C339.634 248.08 336.917 248.118 334.886 248.118L334.696 247.039C335.61 247.039 336.651 247.033 337.73 247.001V246.252C336.428 246.1 335.61 245.503 335.622 244.627C335.61 243.599 336.739 242.951 338.453 242.964ZM338.453 243.916C337.552 243.916 336.968 244.157 336.981 244.627C336.968 245.109 337.552 245.363 338.453 245.363C339.329 245.363 339.913 245.109 339.926 244.627C339.913 244.157 339.329 243.916 338.453 243.916ZM340.992 248.689C340.98 249.794 342.325 250.784 344.725 251.013L344.23 252.066C342.37 251.876 340.954 251.222 340.256 250.226C339.551 251.222 338.149 251.876 336.308 252.066L335.813 251.013C338.199 250.784 339.532 249.794 339.545 248.689V248.562H340.992V248.689ZM352.06 241.605C352.06 243.053 353.672 244.513 356.122 244.83L355.563 245.973C353.615 245.681 352.066 244.722 351.323 243.421C350.568 244.722 349.025 245.681 347.096 245.973L346.537 244.83C348.962 244.513 350.574 243.053 350.574 241.605V241.021H352.06V241.605ZM356.541 246.963V248.131H351.983V252.13H350.587V248.131H346.08V246.963H356.541Z" fill="black"/>
<path d="M417.323 283.13H415.914V271.653H417.323V283.13ZM408.328 279.943C409.433 279.935 410.273 279.922 410.848 279.905V278.852C410.421 278.784 410.046 278.655 409.725 278.464C409.403 278.274 409.153 278.035 408.976 277.747C408.802 277.455 408.715 277.129 408.715 276.77C408.715 276.342 408.834 275.965 409.071 275.64C409.308 275.314 409.64 275.062 410.067 274.884C410.495 274.702 410.984 274.611 411.534 274.611C412.092 274.611 412.587 274.702 413.019 274.884C413.451 275.062 413.787 275.314 414.028 275.64C414.27 275.965 414.39 276.342 414.39 276.77C414.39 277.125 414.301 277.449 414.124 277.741C413.95 278.028 413.702 278.268 413.381 278.458C413.059 278.648 412.685 278.778 412.257 278.845V279.854C413.324 279.808 414.318 279.723 415.241 279.601L415.342 280.654C414.221 280.845 413.063 280.97 411.87 281.029C410.681 281.084 409.397 281.111 408.017 281.111L407.814 279.943H408.328ZM408.055 272.974H410.848V271.691H412.257V272.974H415.038V274.091H408.055V272.974ZM410.061 276.77C410.057 277.091 410.188 277.345 410.455 277.531C410.721 277.717 411.075 277.811 411.515 277.811C411.976 277.811 412.344 277.72 412.619 277.538C412.898 277.351 413.036 277.095 413.032 276.77C413.036 276.439 412.901 276.179 412.625 275.989C412.35 275.794 411.986 275.695 411.534 275.69C411.089 275.695 410.732 275.794 410.461 275.989C410.19 276.179 410.057 276.439 410.061 276.77Z" fill="black"/>
<rect x="313.5" y="263.5" width="87" height="29" rx="9.5" fill="white" stroke="#326789"/>
<path d="M343.04 281.121H341.618V272.653H343.04V281.121ZM333.518 279.039C334.678 279.039 335.689 279.026 336.553 279.001V278.252C335.897 278.176 335.38 277.996 335.004 277.712C334.627 277.425 334.441 277.063 334.445 276.627C334.445 276.288 334.562 275.994 334.794 275.745C335.027 275.491 335.357 275.298 335.785 275.167C336.212 275.032 336.709 274.964 337.276 274.964C337.831 274.964 338.319 275.032 338.743 275.167C339.17 275.302 339.502 275.497 339.739 275.751C339.976 276.001 340.095 276.293 340.095 276.627C340.095 277.063 339.902 277.425 339.517 277.712C339.132 278 338.614 278.182 337.962 278.258V278.944C339.045 278.889 339.997 278.806 340.818 278.696L340.92 279.687C339.824 279.86 338.681 279.976 337.492 280.036C336.307 280.091 335.046 280.118 333.709 280.118L333.518 279.039ZM333.874 273.58H336.553V272.59H337.962V273.58H340.666V274.608H333.874V273.58ZM334.636 283.013C335.41 282.937 336.077 282.786 336.635 282.562C337.198 282.338 337.625 282.063 337.917 281.737C338.214 281.411 338.364 281.062 338.368 280.689V280.562H339.815V280.689C339.811 281.062 339.955 281.411 340.247 281.737C340.539 282.058 340.966 282.333 341.529 282.562C342.096 282.786 342.769 282.937 343.548 283.013L343.053 284.066C342.122 283.973 341.313 283.768 340.628 283.451C339.947 283.133 339.43 282.729 339.079 282.238C338.728 282.729 338.211 283.133 337.53 283.451C336.849 283.768 336.049 283.973 335.131 284.066L334.636 283.013ZM335.804 276.627C335.799 276.864 335.928 277.046 336.191 277.173C336.453 277.3 336.815 277.363 337.276 277.363C337.721 277.363 338.076 277.3 338.343 277.173C338.609 277.046 338.745 276.864 338.749 276.627C338.745 276.398 338.609 276.223 338.343 276.1C338.08 275.977 337.725 275.916 337.276 275.916C336.815 275.916 336.453 275.977 336.191 276.1C335.928 276.219 335.799 276.394 335.804 276.627ZM350.883 273.605C350.878 274.088 351.045 274.558 351.384 275.015C351.727 275.472 352.207 275.863 352.825 276.189C353.447 276.515 354.154 276.729 354.945 276.83L354.386 277.973C353.422 277.829 352.567 277.533 351.822 277.084C351.077 276.631 350.516 276.079 350.14 275.427C349.763 276.079 349.205 276.631 348.464 277.084C347.724 277.533 346.875 277.829 345.919 277.973L345.36 276.83C346.147 276.729 346.848 276.515 347.461 276.189C348.075 275.863 348.551 275.474 348.889 275.021C349.228 274.564 349.397 274.092 349.397 273.605V273.021H350.883V273.605ZM344.903 278.963H355.364V280.131H350.806V284.13H349.41V280.131H344.903V278.963ZM369.183 278.811H367.761V272.653H369.183V278.811ZM359.826 275.853C359.826 275.332 359.96 274.867 360.226 274.456C360.497 274.046 360.867 273.728 361.337 273.504C361.807 273.275 362.336 273.161 362.924 273.161C363.508 273.161 364.035 273.275 364.505 273.504C364.974 273.728 365.343 274.046 365.609 274.456C365.876 274.867 366.009 275.332 366.009 275.853C366.009 276.369 365.876 276.83 365.609 277.236C365.343 277.638 364.974 277.954 364.505 278.182C364.035 278.406 363.508 278.519 362.924 278.519C362.336 278.519 361.807 278.406 361.337 278.182C360.867 277.954 360.497 277.638 360.226 277.236C359.96 276.83 359.826 276.369 359.826 275.853ZM361.21 275.853C361.21 276.153 361.282 276.417 361.426 276.646C361.57 276.875 361.771 277.052 362.029 277.179C362.291 277.302 362.59 277.363 362.924 277.363C363.25 277.363 363.542 277.302 363.8 277.179C364.058 277.052 364.259 276.875 364.403 276.646C364.551 276.417 364.625 276.153 364.625 275.853C364.625 275.552 364.551 275.288 364.403 275.059C364.259 274.826 364.058 274.649 363.8 274.526C363.542 274.403 363.25 274.342 362.924 274.342C362.59 274.342 362.291 274.403 362.029 274.526C361.771 274.649 361.57 274.826 361.426 275.059C361.282 275.288 361.21 275.552 361.21 275.853ZM361.591 279.344H362.988V280.524H367.774V279.344H369.183V283.99H361.591V279.344ZM367.774 282.848V281.629H362.988V282.848H367.774ZM376.543 276.792H372.925V278.201C373.89 278.201 374.668 278.182 375.261 278.144C375.858 278.106 376.45 278.032 377.038 277.922L377.178 279.064C376.53 279.174 375.87 279.246 375.197 279.28C374.529 279.314 373.585 279.331 372.366 279.331H371.528V275.738H375.134V274.456H371.503V273.339H376.543V276.792ZM372.823 280.271H380.669V284.13H379.26V281.4H372.823V280.271ZM377.229 276.703H379.26V275.421H377.229V274.291H379.26V272.666H380.669V279.725H379.26V277.833H377.229V276.703Z" fill="#E9EEF4"/>
<path d="M41 222.5H461V221.5H41V222.5Z" fill="black" mask="url(#path-4-inside-1_116_319)"/>
<rect x="71.5" y="126.5" width="161" height="29" rx="10.5" fill="#326789"/>
<rect x="84" y="137" width="8" height="8" rx="4" fill="white"/>
<rect x="81" y="134" width="14" height="14" rx="7" stroke="white" stroke-width="2"/>
<path d="M142.371 136.083C142.371 138.31 144.92 140.302 147.19 140.727L146.663 141.693C144.7 141.239 142.627 139.84 141.785 137.914C140.943 139.833 138.877 141.232 136.907 141.693L136.38 140.727C138.635 140.287 141.17 138.324 141.17 136.083V135.087H142.371V136.083ZM147.805 144.462V145.414H135.882V144.462H147.805ZM156.414 135.233V135.805C156.414 136.691 156.414 138.258 156.003 140.492C156.56 140.448 157.109 140.39 157.644 140.316L157.732 141.151C156.392 141.378 155.007 141.51 153.66 141.576V146.483H152.517V141.635C151.294 141.686 150.129 141.693 149.089 141.693L148.928 140.741C150.642 140.741 152.751 140.727 154.832 140.595C154.985 139.833 155.081 139.145 155.154 138.529L149.954 138.983L149.778 137.987L155.227 137.68C155.271 137.086 155.286 136.588 155.286 136.186H150.056V135.233H156.414ZM159.827 134.179V147.201H158.684V143.642H155.681V142.704H158.684V134.179H159.827ZM172.756 141.21V142.147H163.747V135.292H172.61V136.259H164.919V138.192H172.331V139.115H164.919V141.21H172.756ZM174.133 144.535V145.487H162.209V144.535H174.133Z" fill="white"/>
<rect x="71.5" y="126.5" width="161" height="29" rx="10.5" stroke="#326789"/>
<rect x="269.5" y="127.5" width="161" height="29" rx="10.5" fill="white"/>
<rect x="279" y="135" width="14" height="14" rx="7" stroke="#326789" stroke-width="2"/>
<path d="M347.292 136.087V139.896H342.663V141.99C345.116 141.99 346.61 141.924 348.376 141.624L348.478 142.591C346.632 142.884 345.094 142.942 342.502 142.942H341.505V138.958H346.149V137.024H341.476V136.087H347.292ZM351.759 135.179V144.744H350.602V139.573H348.127V138.577H350.602V135.179H351.759ZM352.155 146.941V147.908H343.307V144.012H344.45V146.941H352.155ZM358.786 139.163C358.786 141.375 360.397 143.616 362.316 144.451L361.671 145.359C360.148 144.664 358.829 143.162 358.229 141.36C357.614 143.272 356.303 144.935 354.816 145.682L354.127 144.773C355.988 143.88 357.614 141.419 357.628 139.163V137.464H354.552V136.512H361.891V137.464H358.786V139.163ZM364.865 135.164V148.187H363.707V135.164H364.865Z" fill="#326789"/>
<rect x="269.5" y="127.5" width="161" height="29" rx="10.5" stroke="#326789"/>
<rect x="269.5" y="168.5" width="161" height="29" rx="10.5" fill="white"/>
<rect x="279" y="176" width="14" height="14" rx="7" stroke="#326789" stroke-width="2"/>
<path d="M317.971 177.585V182.141H314.206V185.1C315.7 185.092 317.114 185.026 318.806 184.748L318.908 185.686C317.063 186.008 315.583 186.066 313.942 186.066H313.093V181.188H316.858V178.552H313.064V177.585H317.971ZM323.786 176.164V189.187H322.688V182.272H320.769V188.513H319.714V176.457H320.769V181.32H322.688V176.164H323.786ZM336.613 176.164V189.216H335.471V182.038H332.717V181.086H335.471V176.164H336.613ZM332.497 177.365V178.317H327.575V181.027H331.926V181.965H327.575V185.114C329.97 185.114 331.494 185.034 333.288 184.719L333.42 185.671C331.53 185.979 329.933 186.066 327.414 186.066H326.418V177.365H332.497ZM345.309 176.809V180.031H340.68V181.613C342.87 181.613 344.46 181.562 346.393 181.232L346.496 182.155C344.46 182.478 342.819 182.536 340.519 182.536H339.538V179.167H344.167V177.702H339.508V176.809H345.309ZM349.777 183.664V186.726H342.424V188.103H350.29V189.04H341.281V185.861H348.634V184.558H341.252V183.664H349.777ZM349.777 176.164V183.034H348.62V179.782H346.144V178.83H348.62V176.164H349.777ZM361.193 177.614V182.111H357.662V185.012C359.164 185.004 360.585 184.953 362.321 184.646L362.408 185.598C360.548 185.935 359.069 185.964 357.413 185.979H356.549V181.159H360.094V178.566H356.52V177.614H361.193ZM367.242 176.164V189.187H366.144V176.164H367.242ZM364.576 176.486V188.498H363.492V181.804H361.823V180.866H363.492V176.486H364.576ZM380.011 176.164V189.216H378.854V176.164H380.011ZM373.082 177.175C375.016 177.189 376.407 178.947 376.407 181.716C376.407 184.484 375.016 186.242 373.082 186.242C371.134 186.242 369.757 184.484 369.757 181.716C369.757 178.947 371.134 177.189 373.082 177.175ZM373.082 178.2C371.778 178.215 370.87 179.592 370.87 181.716C370.87 183.84 371.778 185.217 373.082 185.217C374.386 185.217 375.294 183.84 375.294 181.716C375.294 179.592 374.386 178.215 373.082 178.2ZM394.361 186.491V187.458H382.437V186.491H394.361ZM388.971 179.035C388.971 181.115 391.549 182.888 393.79 183.254L393.321 184.162C391.329 183.774 389.227 182.5 388.399 180.705C387.557 182.514 385.462 183.825 383.507 184.221L383.023 183.298C385.221 182.917 387.784 181.115 387.784 179.035V178.435H383.419V177.482H393.336V178.435H388.971V179.035Z" fill="#326789"/>
<rect x="269.5" y="168.5" width="161" height="29" rx="10.5" stroke="#326789"/>
<rect x="71.5" y="168.5" width="161" height="29" rx="10.5" fill="white"/>
<rect x="81" y="176" width="14" height="14" rx="7" stroke="#326789" stroke-width="2"/>
<path d="M103.372 179.665C103.372 181.965 104.896 184.323 106.742 185.231L106.038 186.154C104.603 185.4 103.402 183.862 102.83 182.053C102.245 183.979 101.014 185.62 99.5492 186.403L98.8168 185.48C100.721 184.543 102.23 182.038 102.245 179.665V177.292H103.372V179.665ZM109.085 176.164V181.452H111.268V182.448H109.085V189.187H107.943V176.164H109.085ZM122.908 176.164V189.216H121.751V176.164H122.908ZM115.98 177.175C117.913 177.189 119.305 178.947 119.305 181.716C119.305 184.484 117.913 186.242 115.98 186.242C114.031 186.242 112.654 184.484 112.654 181.716C112.654 178.947 114.031 177.189 115.98 177.175ZM115.98 178.2C114.676 178.215 113.768 179.592 113.768 181.716C113.768 183.84 114.676 185.217 115.98 185.217C117.283 185.217 118.192 183.84 118.192 181.716C118.192 179.592 117.283 178.215 115.98 178.2ZM135.853 182.434V183.386H126.858V177.38H135.721V178.332H128.001V182.434H135.853ZM137.259 186.447V187.414H125.335V186.447H137.259ZM147.546 177.614V182.111H144.016V185.012C145.518 185.004 146.939 184.953 148.674 184.646L148.762 185.598C146.902 185.935 145.422 185.964 143.767 185.979H142.903V181.159H146.448V178.566H142.874V177.614H147.546ZM153.596 176.164V189.187H152.498V176.164H153.596ZM150.93 176.486V188.498H149.846V181.804H148.176V180.866H149.846V176.486H150.93ZM165.896 177.556V178.859C165.896 180.5 165.896 182.36 165.412 185.188L164.241 185.07C164.768 182.404 164.768 180.456 164.768 178.859V178.508H156.916V177.556H165.896ZM167.493 186.315V187.268H155.627V186.315H167.493ZM177.839 177.614V182.111H174.309V185.012C175.81 185.004 177.231 184.953 178.967 184.646L179.055 185.598C177.194 185.935 175.715 185.964 174.06 185.979H173.195V181.159H176.74V178.566H173.166V177.614H177.839ZM183.889 176.164V189.187H182.79V176.164H183.889ZM181.223 176.486V188.498H180.139V181.804H178.469V180.866H180.139V176.486H181.223ZM196.657 176.164V189.216H195.5V176.164H196.657ZM189.728 177.175C191.662 177.189 193.054 178.947 193.054 181.716C193.054 184.484 191.662 186.242 189.728 186.242C187.78 186.242 186.403 184.484 186.403 181.716C186.403 178.947 187.78 177.189 189.728 177.175ZM189.728 178.2C188.425 178.215 187.516 179.592 187.516 181.716C187.516 183.84 188.425 185.217 189.728 185.217C191.032 185.217 191.94 183.84 191.94 181.716C191.94 179.592 191.032 178.215 189.728 178.2ZM211.007 186.491V187.458H199.084V186.491H211.007ZM205.617 179.035C205.617 181.115 208.195 182.888 210.436 183.254L209.967 184.162C207.975 183.774 205.873 182.5 205.046 180.705C204.203 182.514 202.108 183.825 200.153 184.221L199.67 183.298C201.867 182.917 204.43 181.115 204.43 179.035V178.435H200.065V177.482H209.982V178.435H205.617V179.035Z" fill="#326789"/>
<rect x="71.5" y="168.5" width="161" height="29" rx="10.5" stroke="#326789"/>
<path d="M51.9413 101.328V102.458H47.5106V104.565H46.0761V102.458H41.455V101.328H51.9413ZM50.786 105.746V106.901H42.7372V103.499H44.1591V105.746H50.786ZM46.6854 95.9072C49.161 95.9072 50.7987 96.8086 50.7987 98.2559C50.7987 99.7031 49.161 100.592 46.6854 100.592C44.2099 100.592 42.5722 99.7031 42.5722 98.2559C42.5722 96.8086 44.2099 95.9072 46.6854 95.9072ZM46.6854 97.0244C45.1112 97.0244 44.0829 97.4688 44.0956 98.2559C44.0829 99.0176 45.1112 99.4619 46.6854 99.4619C48.2724 99.4619 49.288 99.0176 49.288 98.2559C49.288 97.4688 48.2724 97.0244 46.6854 97.0244ZM63.3767 101.15V102.28H52.903V101.15H57.4479V100.059H54.1853V96.1738H62.1071V97.2783H55.5944V98.9414H62.1706V100.059H58.8317V101.15H63.3767ZM58.1208 102.94C60.5964 102.94 62.0817 103.689 62.0944 105.035C62.0817 106.368 60.5964 107.13 58.1208 107.13C55.6198 107.13 54.1218 106.368 54.1218 105.035C54.1218 103.689 55.6198 102.94 58.1208 102.94ZM58.1208 104.02C56.445 104.02 55.5437 104.375 55.5563 105.035C55.5437 105.695 56.445 106.038 58.1208 106.038C59.7585 106.038 60.6726 105.695 60.6853 105.035C60.6726 104.375 59.7585 104.02 58.1208 104.02ZM73.5394 99.7539V101.214H78.0843V102.356H67.6233V101.214H72.1429V99.7539H73.5394ZM72.8411 103.093C75.3294 103.093 76.8021 103.804 76.8147 105.099C76.8021 106.394 75.3294 107.117 72.8411 107.117C70.3401 107.117 68.8421 106.394 68.8421 105.099C68.8421 103.804 70.3401 103.093 72.8411 103.093ZM72.8411 104.172C71.1526 104.172 70.264 104.489 70.2767 105.099C70.264 105.733 71.1526 106.051 72.8411 106.051C74.4915 106.051 75.3929 105.733 75.4056 105.099C75.3929 104.489 74.4915 104.172 72.8411 104.172ZM77.1448 96.1611V97.291H73.844C74.0726 98.2241 75.45 99.062 77.5892 99.2715L77.0813 100.376C74.9993 100.167 73.4632 99.354 72.8411 98.1924C72.219 99.354 70.6956 100.167 68.6136 100.376L68.1185 99.2715C70.2386 99.062 71.616 98.2305 71.8509 97.291H68.5755V96.1611H77.1448ZM88.1866 96.123V100.109H84.9874V101.315H89.5196V102.458H79.0587V101.315H83.5655V100.109H80.379V96.123H88.1866ZM81.7501 97.2275V98.9922H86.7901V97.2275H81.7501ZM88.2374 103.423V107.13H86.8282V104.54H80.214V103.423H88.2374Z" fill="black"/>
<path d="M192.127 39.6758V41.668H185.389V44.7539H182.87V41.668H175.858V39.6758H192.127ZM190.33 46.4727V48.4844H177.791V43.1719H180.311V46.4727H190.33ZM183.983 31.3555C187.83 31.375 190.389 32.8008 190.409 35.0469C190.389 37.3125 187.83 38.7188 183.983 38.7188C180.116 38.7188 177.537 37.3125 177.537 35.0469C177.537 32.8008 180.116 31.375 183.983 31.3555ZM183.983 33.3281C181.678 33.3281 180.213 33.9141 180.233 35.0469C180.213 36.1406 181.678 36.7266 183.983 36.7266C186.268 36.7266 187.733 36.1406 187.733 35.0469C187.733 33.9141 186.268 33.3281 183.983 33.3281ZM209.612 39.4219V41.375H193.362V39.4219H200.277V37.8984H195.335V31.8047H207.659V33.7383H197.816V35.9453H207.757V37.8984H202.718V39.4219H209.612ZM201.448 42.2734C205.296 42.2734 207.62 43.4453 207.64 45.5547C207.62 47.625 205.296 48.8164 201.448 48.8164C197.562 48.8164 195.218 47.625 195.218 45.5547C195.218 43.4453 197.562 42.2734 201.448 42.2734ZM201.448 44.168C198.987 44.168 197.737 44.6367 197.757 45.5547C197.737 46.4922 198.987 46.9219 201.448 46.9219C203.851 46.9219 205.12 46.4922 205.14 45.5547C205.12 44.6367 203.851 44.168 201.448 44.168ZM231.927 44.6562V46.7266H215.657V44.6562H231.927ZM230.559 32.5859V34.5781H228.059V39.9688H230.481V41.9219H217.005V39.9688H219.387V34.5781H216.927V32.5859H230.559ZM221.887 39.9688H225.598V34.5781H221.887V39.9688ZM249.412 44.7734V46.8242H233.142V44.7734H239.998V42.0977H235.017V36.1211H245.076V34.168H234.998V32.1758H247.537V38.0742H237.517V40.0664H247.947V42.0977H242.478V44.7734H249.412ZM264.846 32.6641V34.793C264.846 37.2344 264.846 39.6562 264.202 43.3281L261.682 43.1133C262.346 39.6953 262.346 37.1562 262.366 34.793V34.6562H252.307V32.6641H264.846ZM266.838 44.4219V46.4727H250.627V44.4219H266.838ZM283.386 31.043V41.5117H281.023V37.2148H279.48V41.375H277.155V31.3555H279.48V35.2227H281.023V31.043H283.386ZM283.386 42.2344V48.6016H271.257V42.2344H283.386ZM273.737 44.207V46.6094H280.925V44.207H273.737ZM275.593 32.0781V37.3711H271.237V38.9727C273.181 38.9531 274.626 38.875 276.316 38.5625L276.53 40.5156C274.46 40.8672 272.702 40.9062 270.066 40.9062H268.835V35.5156H273.191V34.0117H268.816V32.0781H275.593ZM305.387 31.0234V40.0664H302.907V35.6523H299.567V33.6797H302.907V31.0234H305.387ZM305.387 40.8086V45.5547H296.052V46.6484H305.895V48.6016H293.591V43.7383H302.927V42.7227H293.571V40.8086H305.387ZM297.067 32.8984C297.048 35.0273 298.298 37.0781 301.13 37.918L299.821 39.832C297.917 39.2168 296.589 38.0254 295.817 36.4922C295.046 38.2012 293.639 39.5488 291.559 40.2031L290.27 38.2305C293.22 37.3711 294.528 35.2031 294.548 32.8984V31.6094H297.067V32.8984ZM322.873 31.0234V41.5703H320.392V37.3711H317.619V35.3594H320.392V31.0234H322.873ZM316.798 41.9609C320.587 41.9805 322.912 43.2305 322.931 45.3984C322.912 47.5469 320.587 48.8164 316.798 48.8164C313.009 48.8164 310.685 47.5469 310.685 45.3984C310.685 43.2305 313.009 41.9805 316.798 41.9609ZM316.798 43.875C314.435 43.875 313.166 44.3633 313.166 45.3984C313.166 46.4141 314.435 46.9219 316.798 46.9219C319.162 46.9219 320.451 46.4141 320.451 45.3984C320.451 44.3633 319.162 43.875 316.798 43.875ZM318.146 32.0977V34.0898H314.611C314.67 36.1602 315.92 38.25 318.693 39.168L317.462 41.1211C315.5 40.4863 314.152 39.1973 313.38 37.5859C312.589 39.4023 311.173 40.8672 309.064 41.5898L307.775 39.6172C310.695 38.6406 312.004 36.3164 312.072 34.0898H308.498V32.0977H318.146Z" fill="black"/>
</g>
<defs>
<clipPath id="clip0_116_319">
<rect width="500" height="400" rx="10" fill="white"/>
</clipPath>
</defs>
</svg>
